<svg width="100" height="100" viewBox="0 0 100 100" fill="none" xmlns="http://www.w3.org/2000/svg">
<mask id="path-1-outside-1_101_9" maskUnits="userSpaceOnUse" x="5" y="8" width="91" height="88" fill="black">
<rect fill="white" x="5" y="8" width="91" height="88"/>
<path fill-rule="evenodd" clip-rule="evenodd" d="M91 77.5681V81.2959C90.7985 81.3465 90.5803 81.4305 90.3453 81.548C90.0701 81.6856 89.7033 81.892 89.2447 82.1671C89.0612 82.6716 88.809 83.0614 88.488 83.3365C88.2128 83.5658 87.8689 83.7722 87.4562 83.9556C87.0893 84.0932 86.6995 84.2537 86.2868 84.4371C85.874 84.5747 85.4842 84.827 85.1173 85.1938C81.632 85.7441 78.5595 84.9645 75.8997 82.855C75.5786 82.6257 75.2806 82.3735 75.0054 82.0983C74.7761 81.8232 74.5009 81.571 74.1799 81.3417C73.9506 81.1582 73.8131 81.0894 73.7672 81.1353L73.492 80.7913C73.171 80.3328 72.9647 79.7824 72.8729 79.1404C72.8271 78.4525 72.7354 77.8105 72.5978 77.2143C72.4602 76.5723 72.1851 76.0449 71.7723 75.6322C71.4055 75.1736 70.7405 74.9672 69.7775 75.0131C69.3189 75.9761 68.6539 76.9621 67.7826 77.971C66.9571 78.934 66.017 79.8054 64.9622 80.585C63.9075 81.3646 62.7839 82.0066 61.5916 82.5111C60.4451 83.0155 59.3445 83.2677 58.2897 83.2677C57.9229 84.3225 57.2808 85.1021 56.3636 85.6066C55.4923 86.1569 54.5522 86.5696 53.5433 86.8448C53.4516 86.8906 53.2681 86.9365 52.993 86.9823C52.7178 87.0741 52.5573 87.1199 52.5115 87.1199C51.8694 87.1658 51.365 87.0511 50.9981 86.776C50.6312 86.5008 50.2873 86.2027 49.9663 85.8817C49.6453 85.5607 49.3013 85.2626 48.9345 84.9875C48.5676 84.7123 48.0631 84.5747 47.4211 84.5747C46.9166 83.3824 46.4122 82.213 45.9077 81.0665C45.4033 79.92 45.0364 78.7506 44.8071 77.5583C45.2199 77.329 45.4492 77.0538 45.495 76.7328V76.2698C45.0029 76.7832 44.4985 77.2815 43.9817 77.7646C43.4313 78.4067 42.7435 78.9799 41.918 79.4844C41.5511 79.7137 41.1613 79.9659 40.7486 80.241C40.3359 80.4703 39.946 80.6996 39.5792 80.9289C38.341 81.7544 37.1486 82.6486 36.0022 83.6117C34.8557 84.5289 33.7551 85.5607 32.7003 86.7072C32.5627 86.432 32.3793 86.2486 32.15 86.1569C31.9207 86.0651 31.6455 86.0193 31.3245 86.0193C31.0494 86.0193 30.7513 86.0422 30.4303 86.0881C30.1551 86.1339 29.9029 86.1339 29.6736 86.0881C28.8023 86.7301 27.6558 87.2346 26.2342 87.6014C24.8584 88.0142 23.6202 88.1059 22.5196 87.8766C22.1985 87.7849 21.7629 87.6014 21.2126 87.3263C20.6623 87.097 20.2495 86.8906 19.9744 86.7072C18.1859 85.5148 16.833 84.0473 15.9158 82.3047C15.0445 80.5162 14.563 78.5672 14.4713 76.4577L13.921 75.9073C14.5171 75.357 14.884 74.8067 15.0216 74.2564C15.205 73.7061 15.2509 73.1558 15.1592 72.6055C15.1133 72.0093 14.9987 71.4131 14.8152 70.817C14.6776 70.1749 14.5859 69.5329 14.5401 68.8909C14.4942 68.4782 14.4942 68.1342 14.5401 67.8591C14.6318 67.5839 14.7235 67.2629 14.8152 66.896C15.1821 65.4285 15.526 64.0069 15.847 62.6311C16.1681 61.2095 16.512 59.7878 16.8789 58.3662C17.7961 54.8809 18.8508 51.4415 20.0432 48.0479C21.2814 44.6084 22.5654 41.2149 23.8953 37.8671C23.1616 37.592 22.4278 37.4315 21.6941 37.3856C20.9603 37.2939 20.2037 37.248 19.4241 37.248C18.6903 37.248 17.9336 37.2251 17.154 37.1793C16.4203 37.1334 15.6865 36.9729 14.9528 36.6977L14.4713 36.4914C14.4713 36.4455 14.2878 36.4226 13.921 36.4226C13.6917 36.4226 13.3707 36.4684 12.9579 36.5602C12.5452 36.606 12.1325 36.6289 11.7197 36.6289C11.307 36.6289 10.9401 36.5831 10.6191 36.4914C10.2522 36.3997 10.0459 36.1933 10 35.8723V35.1844C10.0459 34.4506 10.2064 33.9691 10.4815 33.7398C10.7567 33.4647 11.1006 33.3042 11.5134 33.2583C11.9261 33.1666 12.3847 33.1207 12.8891 33.1207C13.3936 33.0749 13.8751 32.9144 14.3337 32.6392C15.6178 32.9144 16.833 33.1207 17.9795 33.2583C19.126 33.35 20.2266 33.3271 21.2814 33.1895C22.382 33.0519 23.4367 32.7538 24.4456 32.2953C25.5004 31.8367 26.5322 31.1488 27.5411 30.2316C28.2749 28.81 28.8252 27.2966 29.1921 25.6915C29.5589 24.0406 29.9717 22.4355 30.4303 20.8763C30.9347 19.2712 31.5767 17.8038 32.3564 16.4738C33.136 15.0981 34.3283 13.9516 35.9334 13.0344C36.6671 12.9427 37.3091 13.0344 37.8595 13.3095C38.4098 13.5847 38.9601 13.8828 39.5104 14.2038C39.2811 14.8458 39.0977 15.5108 38.9601 16.1987C38.8225 16.8866 38.662 17.5745 38.4786 18.2623C38.341 18.9502 38.1575 19.6152 37.9282 20.2572C37.6989 20.8992 37.355 21.4954 36.8964 22.0457C37.4926 22.275 37.8365 22.5502 37.9282 22.8712C38.02 23.1922 37.9741 23.5361 37.7907 23.903C37.6072 24.2699 37.3779 24.6597 37.1028 25.0724C36.8276 25.4852 36.6671 25.852 36.6213 26.1731C36.1168 26.2189 35.6811 26.5399 35.3143 27.1361C34.9933 27.7323 34.6493 28.1909 34.2824 28.5119C33.9156 29.2915 33.9844 29.9564 34.4888 30.5067C34.9933 31.0571 35.4518 31.5844 35.8646 32.0889C36.2773 32.2265 36.69 32.2494 37.1028 32.1577C37.5155 32.0201 37.8824 31.8825 38.2034 31.7449C38.5703 31.6074 38.9142 31.5386 39.2352 31.5386C39.5562 31.5386 39.8543 31.722 40.1295 32.0889C40.5881 31.5844 41.0467 31.3781 41.5053 31.4698C41.9639 31.5156 42.4224 31.6303 42.881 31.8137C43.3396 31.9513 43.7982 32.0201 44.2568 32.0201C44.7154 31.9742 45.1511 31.6074 45.5638 30.9195C46.1141 30.6443 46.6186 30.5755 47.0772 30.7131C47.5816 30.8507 48.0402 31.0341 48.4529 31.2634C48.8657 31.4469 49.2555 31.6074 49.6223 31.7449C50.0351 31.8367 50.4478 31.7449 50.8605 31.4698C51.5484 31.5615 52.3051 31.5844 53.1306 31.5386C54.0019 31.4927 54.8503 31.401 55.6758 31.2634C56.5471 31.1258 57.3955 30.9653 58.2209 30.7819C59.0923 30.5526 59.8719 30.3692 60.5598 30.2316C61.2476 30.6443 61.6604 31.0112 61.798 31.3322C61.9355 31.6532 61.9585 31.9742 61.8667 32.2953C61.8209 32.6163 61.7292 32.9831 61.5916 33.3959C61.4999 33.7627 61.5457 34.2443 61.7292 34.8404C61.0871 35.5283 60.3763 35.8952 59.5967 35.9411C58.8171 35.9411 58.0375 35.8723 57.2579 35.7347C56.5241 35.5971 55.7904 35.5513 55.0567 35.5971C54.3688 35.5971 53.7726 35.964 53.2681 36.6977C52.5344 36.5143 51.7777 36.4914 50.9981 36.6289C50.2185 36.7207 49.416 36.8812 48.5905 37.1105L46.1141 37.6608C45.2886 37.8442 44.4632 37.913 43.6377 37.8671L42.4683 36.6977C42.1473 37.2022 41.6887 37.5232 41.0925 37.6608C40.5422 37.7525 39.9919 37.6149 39.4416 37.248C38.4786 37.8901 37.5155 38.1882 36.5525 38.1423C35.5894 38.0964 34.6493 38.0735 33.7321 38.0735C32.8149 38.0277 31.9436 38.2111 31.1182 38.6238C30.3386 38.9907 29.6736 39.9308 29.1233 41.4442C28.7105 42.4989 28.3207 43.5766 27.9539 44.6772L26.8533 47.8415C25.8443 50.5931 24.8125 53.3217 23.7578 56.0274C22.7489 58.6872 21.6024 61.3241 20.3183 63.9381C20.2266 66.0018 20.2725 68.0883 20.4559 70.1979C20.6393 72.3074 20.8457 74.394 21.075 76.4577C20.8916 77.008 20.8228 77.5812 20.8686 78.1774C20.9603 78.7735 21.1209 79.3697 21.3501 79.9659C21.5794 80.562 21.8546 81.1353 22.1756 81.6856C22.4966 82.19 22.8406 82.6486 23.2074 83.0614L24.4456 81.892L26.1654 84.2996C26.624 83.7034 27.1513 83.0843 27.7475 82.4423C28.3895 81.7544 29.0545 81.1353 29.7424 80.585C30.4303 79.9888 31.1411 79.5073 31.8748 79.1404C32.6544 78.7277 33.434 78.4525 34.2137 78.3149C34.5347 77.9939 34.8328 77.65 35.1079 77.2831C35.3831 76.9162 35.6811 76.6182 36.0022 76.3889C36.3232 76.1137 36.6671 75.9303 37.034 75.8386C37.4467 75.701 37.9282 75.7239 38.4786 75.9073C39.946 75.0819 41.253 74.05 42.3995 72.8118C43.3154 71.786 44.2314 70.7748 45.1473 69.7783C45.5851 67.6869 46.2742 65.6485 47.2147 63.6629C48.4529 61.049 50.2185 58.8707 52.5115 57.128C52.2363 56.2567 52.3051 55.5917 52.7178 55.1331C53.1764 54.6745 53.7038 54.4223 54.3 54.3765C54.942 54.3306 55.5382 54.4911 56.0885 54.858C56.6847 55.179 56.9827 55.7064 56.9827 56.4401C57.0286 56.7611 57.0057 57.0821 56.9139 57.4032C56.8222 57.7242 56.7305 58.0223 56.6388 58.2974C56.3636 59.6732 55.9509 61.0031 55.4006 62.2872C54.8503 63.5712 54.2541 64.8323 53.6121 66.0705C52.9701 67.3087 52.3051 68.5469 51.6172 69.7851C50.9752 71.0233 50.4249 72.3074 49.9663 73.6373C49.416 74.0042 49.2325 74.394 49.416 74.8067C49.5994 75.2195 49.8287 75.6322 50.1039 76.0449C50.4249 76.4118 50.5854 76.7787 50.5854 77.1455C50.6312 77.5124 50.2185 77.8564 49.3472 78.1774C49.072 78.8194 49.1408 79.3926 49.5536 79.8971C49.9663 80.3557 50.3102 80.8372 50.5854 81.3417C50.9523 81.3875 51.2962 81.3875 51.6172 81.3417C51.9841 81.2958 52.2822 81.0894 52.5115 80.7226C53.0618 81.0894 53.5433 81.1582 53.956 80.9289C54.4146 80.6996 54.8732 80.4245 55.3318 80.1035C55.8363 79.7366 56.3636 79.4385 56.9139 79.2092C57.5101 78.9799 58.1751 79.0487 58.9088 79.4156C59.2298 79.0946 59.4821 78.7048 59.6655 78.2462C59.8948 77.7876 60.1241 77.3519 60.3534 76.9392C60.5827 76.5264 60.8578 76.1825 61.1789 75.9073C61.5457 75.6322 62.0502 75.5405 62.6922 75.6322C63.3342 74.4857 64.1826 73.5456 65.2374 72.8118C66.2922 72.0322 67.3469 71.2985 68.4017 70.6106C69.5023 69.9227 70.4653 69.189 71.2908 68.4094C72.1621 67.6298 72.7124 66.6209 72.9417 65.3827C73.8131 64.0069 74.6844 62.4706 75.5557 60.7738C76.4729 59.0312 77.5277 57.5866 78.72 56.4401C78.8576 56.0732 79.0869 55.7981 79.4079 55.6147C79.7289 55.3854 80.0728 55.2478 80.4397 55.2019C80.8066 55.1102 81.1735 55.1331 81.5403 55.2707C81.9072 55.3624 82.2282 55.5459 82.5034 55.821C82.5951 56.6465 82.4804 57.4032 82.1594 58.091C81.8843 58.7789 81.5633 59.4668 81.1964 60.1547C80.8754 60.7967 80.6231 61.4846 80.4397 62.2184C80.2563 62.9521 80.3251 63.8005 80.6461 64.7636C80.0041 65.1304 79.362 65.4514 78.72 65.7266C78.1238 66.0018 77.5506 66.2998 77.0003 66.6209C76.4958 66.9419 76.0372 67.3546 75.6245 67.8591C75.2576 68.3635 75.0054 69.0285 74.8678 69.8539C76.106 70.3125 76.8398 70.8858 77.0691 71.5736C77.2984 72.2615 77.413 73.0182 77.413 73.8437C77.413 74.6233 77.4589 75.4487 77.5506 76.3201C77.6882 77.1455 78.2843 77.971 79.3391 78.7965C79.5225 78.934 79.6372 79.0487 79.683 79.1404C79.7748 79.1863 79.9353 79.2551 80.1646 79.3468C80.6231 79.4844 81.0359 79.4844 81.4028 79.3468C81.7696 79.1633 82.1136 79.0028 82.4346 78.8653C82.8015 78.7277 83.1683 78.6818 83.5352 78.7277C83.9479 78.7277 84.4065 79.0028 84.911 79.5531C85.5989 78.6818 86.2409 78.6818 86.8371 79.5531C87.3874 78.5442 87.8918 77.971 88.3504 77.8334C88.809 77.6958 89.2447 77.65 89.6574 77.6958C90.1049 77.7406 90.5525 77.698 91 77.5681Z"/>
</mask>
<path fill-rule="evenodd" clip-rule="evenodd" d="M91 77.5681V81.2959C90.7985 81.3465 90.5803 81.4305 90.3453 81.548C90.0701 81.6856 89.7033 81.892 89.2447 82.1671C89.0612 82.6716 88.809 83.0614 88.488 83.3365C88.2128 83.5658 87.8689 83.7722 87.4562 83.9556C87.0893 84.0932 86.6995 84.2537 86.2868 84.4371C85.874 84.5747 85.4842 84.827 85.1173 85.1938C81.632 85.7441 78.5595 84.9645 75.8997 82.855C75.5786 82.6257 75.2806 82.3735 75.0054 82.0983C74.7761 81.8232 74.5009 81.571 74.1799 81.3417C73.9506 81.1582 73.8131 81.0894 73.7672 81.1353L73.492 80.7913C73.171 80.3328 72.9647 79.7824 72.8729 79.1404C72.8271 78.4525 72.7354 77.8105 72.5978 77.2143C72.4602 76.5723 72.1851 76.0449 71.7723 75.6322C71.4055 75.1736 70.7405 74.9672 69.7775 75.0131C69.3189 75.9761 68.6539 76.9621 67.7826 77.971C66.9571 78.934 66.017 79.8054 64.9622 80.585C63.9075 81.3646 62.7839 82.0066 61.5916 82.5111C60.4451 83.0155 59.3445 83.2677 58.2897 83.2677C57.9229 84.3225 57.2808 85.1021 56.3636 85.6066C55.4923 86.1569 54.5522 86.5696 53.5433 86.8448C53.4516 86.8906 53.2681 86.9365 52.993 86.9823C52.7178 87.0741 52.5573 87.1199 52.5115 87.1199C51.8694 87.1658 51.365 87.0511 50.9981 86.776C50.6312 86.5008 50.2873 86.2027 49.9663 85.8817C49.6453 85.5607 49.3013 85.2626 48.9345 84.9875C48.5676 84.7123 48.0631 84.5747 47.4211 84.5747C46.9166 83.3824 46.4122 82.213 45.9077 81.0665C45.4033 79.92 45.0364 78.7506 44.8071 77.5583C45.2199 77.329 45.4492 77.0538 45.495 76.7328V76.2698C45.0029 76.7832 44.4985 77.2815 43.9817 77.7646C43.4313 78.4067 42.7435 78.9799 41.918 79.4844C41.5511 79.7137 41.1613 79.9659 40.7486 80.241C40.3359 80.4703 39.946 80.6996 39.5792 80.9289C38.341 81.7544 37.1486 82.6486 36.0022 83.6117C34.8557 84.5289 33.7551 85.5607 32.7003 86.7072C32.5627 86.432 32.3793 86.2486 32.15 86.1569C31.9207 86.0651 31.6455 86.0193 31.3245 86.0193C31.0494 86.0193 30.7513 86.0422 30.4303 86.0881C30.1551 86.1339 29.9029 86.1339 29.6736 86.0881C28.8023 86.7301 27.6558 87.2346 26.2342 87.6014C24.8584 88.0142 23.6202 88.1059 22.5196 87.8766C22.1985 87.7849 21.7629 87.6014 21.2126 87.3263C20.6623 87.097 20.2495 86.8906 19.9744 86.7072C18.1859 85.5148 16.833 84.0473 15.9158 82.3047C15.0445 80.5162 14.563 78.5672 14.4713 76.4577L13.921 75.9073C14.5171 75.357 14.884 74.8067 15.0216 74.2564C15.205 73.7061 15.2509 73.1558 15.1592 72.6055C15.1133 72.0093 14.9987 71.4131 14.8152 70.817C14.6776 70.1749 14.5859 69.5329 14.5401 68.8909C14.4942 68.4782 14.4942 68.1342 14.5401 67.8591C14.6318 67.5839 14.7235 67.2629 14.8152 66.896C15.1821 65.4285 15.526 64.0069 15.847 62.6311C16.1681 61.2095 16.512 59.7878 16.8789 58.3662C17.7961 54.8809 18.8508 51.4415 20.0432 48.0479C21.2814 44.6084 22.5654 41.2149 23.8953 37.8671C23.1616 37.592 22.4278 37.4315 21.6941 37.3856C20.9603 37.2939 20.2037 37.248 19.4241 37.248C18.6903 37.248 17.9336 37.2251 17.154 37.1793C16.4203 37.1334 15.6865 36.9729 14.9528 36.6977L14.4713 36.4914C14.4713 36.4455 14.2878 36.4226 13.921 36.4226C13.6917 36.4226 13.3707 36.4684 12.9579 36.5602C12.5452 36.606 12.1325 36.6289 11.7197 36.6289C11.307 36.6289 10.9401 36.5831 10.6191 36.4914C10.2522 36.3997 10.0459 36.1933 10 35.8723V35.1844C10.0459 34.4506 10.2064 33.9691 10.4815 33.7398C10.7567 33.4647 11.1006 33.3042 11.5134 33.2583C11.9261 33.1666 12.3847 33.1207 12.8891 33.1207C13.3936 33.0749 13.8751 32.9144 14.3337 32.6392C15.6178 32.9144 16.833 33.1207 17.9795 33.2583C19.126 33.35 20.2266 33.3271 21.2814 33.1895C22.382 33.0519 23.4367 32.7538 24.4456 32.2953C25.5004 31.8367 26.5322 31.1488 27.5411 30.2316C28.2749 28.81 28.8252 27.2966 29.1921 25.6915C29.5589 24.0406 29.9717 22.4355 30.4303 20.8763C30.9347 19.2712 31.5767 17.8038 32.3564 16.4738C33.136 15.0981 34.3283 13.9516 35.9334 13.0344C36.6671 12.9427 37.3091 13.0344 37.8595 13.3095C38.4098 13.5847 38.9601 13.8828 39.5104 14.2038C39.2811 14.8458 39.0977 15.5108 38.9601 16.1987C38.8225 16.8866 38.662 17.5745 38.4786 18.2623C38.341 18.9502 38.1575 19.6152 37.9282 20.2572C37.6989 20.8992 37.355 21.4954 36.8964 22.0457C37.4926 22.275 37.8365 22.5502 37.9282 22.8712C38.02 23.1922 37.9741 23.5361 37.7907 23.903C37.6072 24.2699 37.3779 24.6597 37.1028 25.0724C36.8276 25.4852 36.6671 25.852 36.6213 26.1731C36.1168 26.2189 35.6811 26.5399 35.3143 27.1361C34.9933 27.7323 34.6493 28.1909 34.2824 28.5119C33.9156 29.2915 33.9844 29.9564 34.4888 30.5067C34.9933 31.0571 35.4518 31.5844 35.8646 32.0889C36.2773 32.2265 36.69 32.2494 37.1028 32.1577C37.5155 32.0201 37.8824 31.8825 38.2034 31.7449C38.5703 31.6074 38.9142 31.5386 39.2352 31.5386C39.5562 31.5386 39.8543 31.722 40.1295 32.0889C40.5881 31.5844 41.0467 31.3781 41.5053 31.4698C41.9639 31.5156 42.4224 31.6303 42.881 31.8137C43.3396 31.9513 43.7982 32.0201 44.2568 32.0201C44.7154 31.9742 45.1511 31.6074 45.5638 30.9195C46.1141 30.6443 46.6186 30.5755 47.0772 30.7131C47.5816 30.8507 48.0402 31.0341 48.4529 31.2634C48.8657 31.4469 49.2555 31.6074 49.6223 31.7449C50.0351 31.8367 50.4478 31.7449 50.8605 31.4698C51.5484 31.5615 52.3051 31.5844 53.1306 31.5386C54.0019 31.4927 54.8503 31.401 55.6758 31.2634C56.5471 31.1258 57.3955 30.9653 58.2209 30.7819C59.0923 30.5526 59.8719 30.3692 60.5598 30.2316C61.2476 30.6443 61.6604 31.0112 61.798 31.3322C61.9355 31.6532 61.9585 31.9742 61.8667 32.2953C61.8209 32.6163 61.7292 32.9831 61.5916 33.3959C61.4999 33.7627 61.5457 34.2443 61.7292 34.8404C61.0871 35.5283 60.3763 35.8952 59.5967 35.9411C58.8171 35.9411 58.0375 35.8723 57.2579 35.7347C56.5241 35.5971 55.7904 35.5513 55.0567 35.5971C54.3688 35.5971 53.7726 35.964 53.2681 36.6977C52.5344 36.5143 51.7777 36.4914 50.9981 36.6289C50.2185 36.7207 49.416 36.8812 48.5905 37.1105L46.1141 37.6608C45.2886 37.8442 44.4632 37.913 43.6377 37.8671L42.4683 36.6977C42.1473 37.2022 41.6887 37.5232 41.0925 37.6608C40.5422 37.7525 39.9919 37.6149 39.4416 37.248C38.4786 37.8901 37.5155 38.1882 36.5525 38.1423C35.5894 38.0964 34.6493 38.0735 33.7321 38.0735C32.8149 38.0277 31.9436 38.2111 31.1182 38.6238C30.3386 38.9907 29.6736 39.9308 29.1233 41.4442C28.7105 42.4989 28.3207 43.5766 27.9539 44.6772L26.8533 47.8415C25.8443 50.5931 24.8125 53.3217 23.7578 56.0274C22.7489 58.6872 21.6024 61.3241 20.3183 63.9381C20.2266 66.0018 20.2725 68.0883 20.4559 70.1979C20.6393 72.3074 20.8457 74.394 21.075 76.4577C20.8916 77.008 20.8228 77.5812 20.8686 78.1774C20.9603 78.7735 21.1209 79.3697 21.3501 79.9659C21.5794 80.562 21.8546 81.1353 22.1756 81.6856C22.4966 82.19 22.8406 82.6486 23.2074 83.0614L24.4456 81.892L26.1654 84.2996C26.624 83.7034 27.1513 83.0843 27.7475 82.4423C28.3895 81.7544 29.0545 81.1353 29.7424 80.585C30.4303 79.9888 31.1411 79.5073 31.8748 79.1404C32.6544 78.7277 33.434 78.4525 34.2137 78.3149C34.5347 77.9939 34.8328 77.65 35.1079 77.2831C35.3831 76.9162 35.6811 76.6182 36.0022 76.3889C36.3232 76.1137 36.6671 75.9303 37.034 75.8386C37.4467 75.701 37.9282 75.7239 38.4786 75.9073C39.946 75.0819 41.253 74.05 42.3995 72.8118C43.3154 71.786 44.2314 70.7748 45.1473 69.7783C45.5851 67.6869 46.2742 65.6485 47.2147 63.6629C48.4529 61.049 50.2185 58.8707 52.5115 57.128C52.2363 56.2567 52.3051 55.5917 52.7178 55.1331C53.1764 54.6745 53.7038 54.4223 54.3 54.3765C54.942 54.3306 55.5382 54.4911 56.0885 54.858C56.6847 55.179 56.9827 55.7064 56.9827 56.4401C57.0286 56.7611 57.0057 57.0821 56.9139 57.4032C56.8222 57.7242 56.7305 58.0223 56.6388 58.2974C56.3636 59.6732 55.9509 61.0031 55.4006 62.2872C54.8503 63.5712 54.2541 64.8323 53.6121 66.0705C52.9701 67.3087 52.3051 68.5469 51.6172 69.7851C50.9752 71.0233 50.4249 72.3074 49.9663 73.6373C49.416 74.0042 49.2325 74.394 49.416 74.8067C49.5994 75.2195 49.8287 75.6322 50.1039 76.0449C50.4249 76.4118 50.5854 76.7787 50.5854 77.1455C50.6312 77.5124 50.2185 77.8564 49.3472 78.1774C49.072 78.8194 49.1408 79.3926 49.5536 79.8971C49.9663 80.3557 50.3102 80.8372 50.5854 81.3417C50.9523 81.3875 51.2962 81.3875 51.6172 81.3417C51.9841 81.2958 52.2822 81.0894 52.5115 80.7226C53.0618 81.0894 53.5433 81.1582 53.956 80.9289C54.4146 80.6996 54.8732 80.4245 55.3318 80.1035C55.8363 79.7366 56.3636 79.4385 56.9139 79.2092C57.5101 78.9799 58.1751 79.0487 58.9088 79.4156C59.2298 79.0946 59.4821 78.7048 59.6655 78.2462C59.8948 77.7876 60.1241 77.3519 60.3534 76.9392C60.5827 76.5264 60.8578 76.1825 61.1789 75.9073C61.5457 75.6322 62.0502 75.5405 62.6922 75.6322C63.3342 74.4857 64.1826 73.5456 65.2374 72.8118C66.2922 72.0322 67.3469 71.2985 68.4017 70.6106C69.5023 69.9227 70.4653 69.189 71.2908 68.4094C72.1621 67.6298 72.7124 66.6209 72.9417 65.3827C73.8131 64.0069 74.6844 62.4706 75.5557 60.7738C76.4729 59.0312 77.5277 57.5866 78.72 56.4401C78.8576 56.0732 79.0869 55.7981 79.4079 55.6147C79.7289 55.3854 80.0728 55.2478 80.4397 55.2019C80.8066 55.1102 81.1735 55.1331 81.5403 55.2707C81.9072 55.3624 82.2282 55.5459 82.5034 55.821C82.5951 56.6465 82.4804 57.4032 82.1594 58.091C81.8843 58.7789 81.5633 59.4668 81.1964 60.1547C80.8754 60.7967 80.6231 61.4846 80.4397 62.2184C80.2563 62.9521 80.3251 63.8005 80.6461 64.7636C80.0041 65.1304 79.362 65.4514 78.72 65.7266C78.1238 66.0018 77.5506 66.2998 77.0003 66.6209C76.4958 66.9419 76.0372 67.3546 75.6245 67.8591C75.2576 68.3635 75.0054 69.0285 74.8678 69.8539C76.106 70.3125 76.8398 70.8858 77.0691 71.5736C77.2984 72.2615 77.413 73.0182 77.413 73.8437C77.413 74.6233 77.4589 75.4487 77.5506 76.3201C77.6882 77.1455 78.2843 77.971 79.3391 78.7965C79.5225 78.934 79.6372 79.0487 79.683 79.1404C79.7748 79.1863 79.9353 79.2551 80.1646 79.3468C80.6231 79.4844 81.0359 79.4844 81.4028 79.3468C81.7696 79.1633 82.1136 79.0028 82.4346 78.8653C82.8015 78.7277 83.1683 78.6818 83.5352 78.7277C83.9479 78.7277 84.4065 79.0028 84.911 79.5531C85.5989 78.6818 86.2409 78.6818 86.8371 79.5531C87.3874 78.5442 87.8918 77.971 88.3504 77.8334C88.809 77.6958 89.2447 77.65 89.6574 77.6958C90.1049 77.7406 90.5525 77.698 91 77.5681Z" fill="black"/>
<path d="M91 77.5681H96V70.9099L89.6059 72.7664L91 77.5681ZM91 81.2959L92.2178 86.1453L96 85.1955V81.2959H91ZM90.3453 81.548L88.1093 77.0758L88.1092 77.0759L90.3453 81.548ZM89.2447 82.1671L86.6722 77.8796L85.1517 78.792L84.5457 80.4584L89.2447 82.1671ZM88.488 83.3365L91.6889 87.1776L91.7156 87.1554L91.742 87.1328L88.488 83.3365ZM87.4562 83.9556L89.2118 88.6373L89.351 88.5851L89.4868 88.5247L87.4562 83.9556ZM86.2868 84.4371L87.8679 89.1806L88.0969 89.1042L88.3174 89.0062L86.2868 84.4371ZM85.1173 85.1938L85.8972 90.1326L87.5032 89.8791L88.6529 88.7294L85.1173 85.1938ZM75.8997 82.855L79.0066 78.9375L78.9082 78.8594L78.8059 78.7864L75.8997 82.855ZM75.0054 82.0983L71.1643 85.2993L71.3095 85.4735L71.4698 85.6338L75.0054 82.0983ZM74.1799 81.3417L71.0565 85.246L71.1628 85.3311L71.2737 85.4103L74.1799 81.3417ZM73.7672 81.1353L69.8628 84.2587L73.3526 88.621L77.3027 84.6708L73.7672 81.1353ZM73.492 80.7913L69.3959 83.6587L69.4877 83.7898L69.5877 83.9148L73.492 80.7913ZM72.8729 79.1404L67.884 79.473L67.8966 79.661L67.9232 79.8475L72.8729 79.1404ZM72.5978 77.2143L67.7088 78.262L67.717 78.3004L67.7258 78.3386L72.5978 77.2143ZM71.7723 75.6322L67.868 78.7557L68.041 78.9719L68.2368 79.1677L71.7723 75.6322ZM69.7775 75.0131L69.5396 70.0187L66.55 70.1611L65.2631 72.8634L69.7775 75.0131ZM67.7826 77.971L63.9985 74.7029L63.9924 74.71L63.9863 74.717L67.7826 77.971ZM64.9622 80.585L61.9903 76.5641L61.9903 76.5641L64.9622 80.585ZM61.5916 82.5111L59.6434 77.9062L59.6105 77.9201L59.5779 77.9345L61.5916 82.5111ZM58.2897 83.2677V78.2677H54.735L53.5672 81.6251L58.2897 83.2677ZM56.3636 85.6066L53.9541 81.2255L53.8215 81.2984L53.6937 81.3791L56.3636 85.6066ZM53.5433 86.8448L52.2277 82.0209L51.7501 82.1512L51.3072 82.3726L53.5433 86.8448ZM52.993 86.9823L52.171 82.0504L51.7841 82.1149L51.4119 82.2389L52.993 86.9823ZM52.5115 87.1199V82.1199H52.3331L52.1552 82.1326L52.5115 87.1199ZM50.9981 86.776L53.9981 82.776L53.9981 82.776L50.9981 86.776ZM48.9345 84.9875L51.9345 80.9875L51.9344 80.9874L48.9345 84.9875ZM47.4211 84.5747L42.8163 86.5229L44.1074 89.5747H47.4211V84.5747ZM45.9077 81.0665L50.4843 79.0528L50.4843 79.0528L45.9077 81.0665ZM44.8071 77.5583L42.3789 73.1875L39.2132 74.9462L39.8971 78.5025L44.8071 77.5583ZM45.495 76.7328L50.4448 77.4399L50.495 77.0881V76.7328H45.495ZM45.495 76.2698H50.495V63.8268L41.8852 72.8102L45.495 76.2698ZM43.9817 77.7646L40.5672 74.112L40.3653 74.3008L40.1854 74.5107L43.9817 77.7646ZM41.918 79.4844L39.3107 75.218L39.2893 75.231L39.268 75.2444L41.918 79.4844ZM40.7486 80.241L43.1768 84.6118L43.3537 84.5135L43.5221 84.4013L40.7486 80.241ZM39.5792 80.9289L36.9291 76.689L36.8668 76.7279L36.8057 76.7687L39.5792 80.9289ZM36.0022 83.6117L39.1256 87.516L39.1723 87.4787L39.2181 87.4402L36.0022 83.6117ZM32.7003 86.7072L28.2282 88.9432L31.4708 95.4285L36.3799 90.0925L32.7003 86.7072ZM30.4303 86.0881L29.7231 81.1383L29.6656 81.1466L29.6083 81.1561L30.4303 86.0881ZM29.6736 86.0881L30.6542 81.1852L28.4869 80.7517L26.7076 82.0628L29.6736 86.0881ZM26.2342 87.6014L24.9848 82.76L24.8906 82.7844L24.7974 82.8123L26.2342 87.6014ZM22.5196 87.8766L21.146 92.6842L21.3213 92.7343L21.4998 92.7715L22.5196 87.8766ZM21.2126 87.3263L23.4486 82.8541L23.2946 82.7771L23.1356 82.7109L21.2126 87.3263ZM19.9744 86.7072L22.7479 82.547L22.7479 82.5469L19.9744 86.7072ZM15.9158 82.3047L11.4209 84.4945L11.455 84.5645L11.4912 84.6334L15.9158 82.3047ZM14.4713 76.4577L19.4666 76.2405L19.3821 74.2974L18.0068 72.9221L14.4713 76.4577ZM13.921 75.9073L10.5296 72.2333L6.70566 75.7631L10.3854 79.4429L13.921 75.9073ZM15.0216 74.2564L10.2782 72.6753L10.2174 72.8574L10.1709 73.0437L15.0216 74.2564ZM15.1592 72.6055L10.1739 72.989L10.1908 73.2094L10.2272 73.4275L15.1592 72.6055ZM14.8152 70.817L9.9262 71.8646L9.97202 72.0784L10.0363 72.2874L14.8152 70.817ZM14.5401 68.8909L19.5274 68.5346L19.5203 68.4365L19.5095 68.3387L14.5401 68.8909ZM14.5401 67.8591L9.79664 66.2779L9.67258 66.6501L9.60809 67.0371L14.5401 67.8591ZM14.8152 66.896L19.6659 68.1087L19.6659 68.1087L14.8152 66.896ZM15.847 62.6311L20.7163 63.7673L20.7203 63.7498L20.7243 63.7324L15.847 62.6311ZM16.8789 58.3662L12.0435 57.0937L12.0405 57.1053L12.0375 57.1168L16.8789 58.3662ZM20.0432 48.0479L15.3387 46.3543L15.3322 46.3723L15.3259 46.3905L20.0432 48.0479ZM23.8953 37.8671L28.5421 39.7131L30.4242 34.9755L25.651 33.1855L23.8953 37.8671ZM21.6941 37.3856L21.0739 42.347L21.2276 42.3662L21.3822 42.3759L21.6941 37.3856ZM17.154 37.1793L16.8421 42.1695L16.8513 42.1701L16.8604 42.1706L17.154 37.1793ZM14.9528 36.6977L12.9832 41.2935L13.0892 41.3389L13.1972 41.3794L14.9528 36.6977ZM14.4713 36.4914H9.47127V39.7884L12.5017 41.0871L14.4713 36.4914ZM12.9579 36.5602L13.5101 41.5296L13.7787 41.4997L14.0426 41.4411L12.9579 36.5602ZM10.6191 36.4914L11.9927 31.6838L11.9126 31.6609L11.8318 31.6407L10.6191 36.4914ZM10 35.8723H5V36.2276L5.05025 36.5794L10 35.8723ZM10 35.1844L5.00974 34.8725L5 35.0283V35.1844H10ZM10.4815 33.7398L13.6824 37.5809L13.8567 37.4357L14.0171 37.2753L10.4815 33.7398ZM11.5134 33.2583L12.0655 38.2277L12.3341 38.1979L12.598 38.1392L11.5134 33.2583ZM12.8891 33.1207V38.1207H13.1159L13.3418 38.1002L12.8891 33.1207ZM14.3337 32.6392L15.3813 27.7502L13.4526 27.3369L11.7612 28.3517L14.3337 32.6392ZM17.9795 33.2583L17.3838 38.2227L17.4821 38.2345L17.5808 38.2424L17.9795 33.2583ZM21.2814 33.1895L20.6612 28.2281L20.6479 28.2298L20.6347 28.2315L21.2814 33.1895ZM24.4456 32.2953L22.452 27.7099L22.4142 27.7264L22.3766 27.7434L24.4456 32.2953ZM27.5411 30.2316L30.9045 33.9313L31.5711 33.3253L31.9842 32.5248L27.5411 30.2316ZM29.1921 25.6915L34.0664 26.8057L34.0697 26.7909L34.073 26.7762L29.1921 25.6915ZM30.4303 20.8763L25.6603 19.3772L25.6465 19.4212L25.6334 19.4655L30.4303 20.8763ZM32.3564 16.4738L36.6698 19.0024L36.6884 18.9708L36.7065 18.9389L32.3564 16.4738ZM35.9334 13.0344L35.3132 8.073L34.3209 8.19704L33.4527 8.69318L35.9334 13.0344ZM39.5104 14.2038L44.2191 15.8855L45.6152 11.9764L42.0297 9.88491L39.5104 14.2038ZM38.9601 16.1987L34.0572 15.2181L34.0572 15.2181L38.9601 16.1987ZM38.4786 18.2623L33.6474 16.974L33.6067 17.1268L33.5757 17.2818L38.4786 18.2623ZM36.8964 22.0457L33.0553 18.8448L28.5869 24.2068L35.1015 26.7125L36.8964 22.0457ZM37.7907 23.903L42.2628 26.1391L42.2628 26.1391L37.7907 23.903ZM37.1028 25.0724L32.9425 22.2989L32.9425 22.2989L37.1028 25.0724ZM36.6213 26.1731L37.0739 31.1525L41.0118 30.7945L41.571 26.8802L36.6213 26.1731ZM35.3143 27.1361L31.056 24.5156L30.9803 24.6385L30.9119 24.7656L35.3143 27.1361ZM34.2824 28.5119L30.9899 24.749L30.2034 25.4372L29.7583 26.3829L34.2824 28.5119ZM34.4888 30.5067L30.803 33.8854L30.803 33.8854L34.4888 30.5067ZM35.8646 32.0889L31.9948 35.2551L32.9109 36.3748L34.2834 36.8323L35.8646 32.0889ZM37.1028 32.1577L38.1874 37.0386L38.4392 36.9827L38.6839 36.9011L37.1028 32.1577ZM38.2034 31.7449L36.4478 27.0633L36.3398 27.1038L36.2338 27.1492L38.2034 31.7449ZM40.1295 32.0889L36.1295 35.0889L39.7595 39.9289L43.8292 35.4523L40.1295 32.0889ZM41.5053 31.4698L40.5247 36.3727L40.7644 36.4206L41.0077 36.445L41.5053 31.4698ZM42.881 31.8137L41.0241 36.4561L41.2309 36.5389L41.4443 36.6029L42.881 31.8137ZM44.2568 32.0201V37.0201H44.5062L44.7543 36.9953L44.2568 32.0201ZM45.5638 30.9195L43.3277 26.4473L42.0255 27.0985L41.2763 28.347L45.5638 30.9195ZM47.0772 30.7131L45.6404 35.5022L45.7008 35.5203L45.7616 35.5369L47.0772 30.7131ZM48.4529 31.2634L46.0247 35.6342L46.2191 35.7422L46.4222 35.8325L48.4529 31.2634ZM49.6223 31.7449L47.8667 36.4266L48.1952 36.5498L48.5377 36.6259L49.6223 31.7449ZM50.8605 31.4698L51.5214 26.5136L49.6543 26.2647L48.087 27.3095L50.8605 31.4698ZM53.1306 31.5386L52.8678 26.5455L52.8605 26.5459L52.8532 26.5463L53.1306 31.5386ZM55.6758 31.2634L54.8959 26.3246L54.8748 26.3279L54.8538 26.3315L55.6758 31.2634ZM58.2209 30.7819L59.3056 35.6628L59.3999 35.6419L59.4934 35.6173L58.2209 30.7819ZM60.5598 30.2316L63.1322 25.9441L61.4747 24.9496L59.5792 25.3287L60.5598 30.2316ZM61.798 31.3322L66.3937 29.3626L66.3937 29.3626L61.798 31.3322ZM61.8667 32.2953L57.0591 30.9217L56.9653 31.25L56.917 31.5881L61.8667 32.2953ZM61.5916 33.3959L56.8482 31.8147L56.7875 31.9969L56.7409 32.1832L61.5916 33.3959ZM61.7292 34.8404L65.3844 38.252L67.3592 36.1362L66.5081 33.37L61.7292 34.8404ZM59.5967 35.9411V40.9411H59.7436L59.8903 40.9324L59.5967 35.9411ZM57.2579 35.7347L56.3365 40.6491L56.3627 40.654L56.389 40.6586L57.2579 35.7347ZM55.0567 35.5971V40.5971H55.2127L55.3685 40.5874L55.0567 35.5971ZM53.2681 36.6977L52.0555 41.5484L55.4223 42.3901L57.3883 39.5304L53.2681 36.6977ZM50.9981 36.6289L51.5823 41.5947L51.7253 41.5779L51.867 41.5529L50.9981 36.6289ZM48.5905 37.1105L49.6752 41.9914L49.8028 41.963L49.9287 41.9281L48.5905 37.1105ZM46.1141 37.6608L45.0295 32.7798L45.0294 32.7798L46.1141 37.6608ZM43.6377 37.8671L40.1022 41.4027L41.453 42.7535L43.3604 42.8594L43.6377 37.8671ZM42.4683 36.6977L46.0038 33.1622L41.5964 28.7547L38.25 34.0134L42.4683 36.6977ZM41.0925 37.6608L41.9145 42.5927L42.0666 42.5674L42.2168 42.5327L41.0925 37.6608ZM39.4416 37.248L42.2151 33.0878L39.4416 31.2388L36.6681 33.0878L39.4416 37.248ZM33.7321 38.0735L33.4824 43.0673L33.6072 43.0735H33.7321V38.0735ZM31.1182 38.6238L33.2471 43.1479L33.301 43.1226L33.3542 43.096L31.1182 38.6238ZM29.1233 41.4442L33.7795 43.2662L33.8016 43.2098L33.8222 43.1529L29.1233 41.4442ZM27.9539 44.6772L32.6764 46.3198L32.687 46.2892L32.6973 46.2584L27.9539 44.6772ZM26.8533 47.8415L31.5476 49.5628L31.562 49.5236L31.5757 49.4841L26.8533 47.8415ZM23.7578 56.0274L19.0992 54.2113L19.0909 54.2327L19.0828 54.2541L23.7578 56.0274ZM20.3183 63.9381L15.8305 61.7336L15.3697 62.6718L15.3232 63.7161L20.3183 63.9381ZM20.4559 70.1979L15.4747 70.631L15.4747 70.631L20.4559 70.1979ZM21.075 76.4577L25.8184 78.0388L26.1657 76.997L26.0444 75.9055L21.075 76.4577ZM20.8686 78.1774L15.8834 78.5609L15.8979 78.7501L15.9268 78.9377L20.8686 78.1774ZM22.1756 81.6856L17.8567 84.205L17.9054 84.2884L17.9573 84.37L22.1756 81.6856ZM23.2074 83.0614L19.4704 86.3832L22.8941 90.2348L26.6406 86.6964L23.2074 83.0614ZM24.4456 81.892L28.5143 78.9858L25.1814 74.3197L21.0125 78.2569L24.4456 81.892ZM26.1654 84.2996L22.0967 87.2058L26.0166 92.6936L30.1285 87.3481L26.1654 84.2996ZM27.7475 82.4423L24.0922 79.0307L24.0835 79.04L27.7475 82.4423ZM29.7424 80.585L32.8659 84.4893L32.9427 84.4278L33.017 84.3634L29.7424 80.585ZM31.8748 79.1404L34.1109 83.6125L34.1629 83.5866L34.2142 83.5594L31.8748 79.1404ZM34.2137 78.3149L35.0826 83.2389L36.6347 82.965L37.7492 81.8505L34.2137 78.3149ZM35.1079 77.2831L39.1079 80.2831L39.1079 80.2831L35.1079 77.2831ZM36.0022 76.3889L38.9083 80.4575L39.0882 80.329L39.2561 80.1852L36.0022 76.3889ZM37.034 75.8386L38.2467 80.6893L38.433 80.6427L38.6151 80.582L37.034 75.8386ZM38.4786 75.9073L36.8974 80.6508L38.999 81.3513L40.9299 80.2652L38.4786 75.9073ZM42.3995 72.8118L46.0683 76.2089L46.0991 76.1757L46.1292 76.1419L42.3995 72.8118ZM45.1473 69.7783L48.8286 73.1617L49.7594 72.149L50.0412 70.8027L45.1473 69.7783ZM47.2147 63.6629L42.696 61.5225L42.696 61.5225L47.2147 63.6629ZM52.5115 57.128L55.5369 61.1088L58.3394 58.9789L57.2794 55.6223L52.5115 57.128ZM52.7178 55.1331L49.1823 51.5976L49.0893 51.6906L49.0014 51.7883L52.7178 55.1331ZM54.3 54.3765L53.9437 49.3892L53.9301 49.3901L53.9165 49.3912L54.3 54.3765ZM56.0885 54.858L53.315 59.0182L53.5108 59.1488L53.718 59.2603L56.0885 54.858ZM56.9827 56.4401H51.9827V56.7955L52.033 57.1472L56.9827 56.4401ZM56.9139 57.4032L52.1063 56.0295L52.1063 56.0296L56.9139 57.4032ZM56.6388 58.2974L51.8954 56.7163L51.7969 57.0116L51.7359 57.3168L56.6388 58.2974ZM55.4006 62.2872L59.9963 64.2568L59.9963 64.2568L55.4006 62.2872ZM51.6172 69.7851L47.2464 67.3569L47.2115 67.4198L47.1784 67.4836L51.6172 69.7851ZM49.9663 73.6373L52.7398 77.7976L54.1433 76.8619L54.6931 75.2673L49.9663 73.6373ZM49.416 74.8067L53.985 72.7761L53.985 72.776L49.416 74.8067ZM50.1039 76.0449L45.9436 78.8184L46.1253 79.0909L46.341 79.3374L50.1039 76.0449ZM50.5854 77.1455H45.5854V77.4568L45.624 77.7657L50.5854 77.1455ZM49.3472 78.1774L47.6187 73.4857L45.5992 74.2297L44.7515 76.2078L49.3472 78.1774ZM49.5536 79.8971L45.6838 83.0633L45.7583 83.1544L45.8371 83.2419L49.5536 79.8971ZM50.5854 81.3417L46.1959 83.7359L47.4228 85.9852L49.9652 86.303L50.5854 81.3417ZM51.6172 81.3417L50.9971 76.3803L50.9536 76.3857L50.9101 76.3919L51.6172 81.3417ZM52.5115 80.7226L55.285 76.5623L51.0006 73.706L48.2715 78.0726L52.5115 80.7226ZM53.956 80.9289L51.7199 76.4568L51.6228 76.5054L51.5278 76.5581L53.956 80.9289ZM55.3318 80.1035L58.1991 84.1996L58.2361 84.1737L58.2727 84.1471L55.3318 80.1035ZM56.9139 79.2092L55.119 74.5425L55.0546 74.5673L54.9909 74.5938L56.9139 79.2092ZM58.9088 79.4156L56.6728 83.8877L59.8961 85.4993L62.4444 82.9511L58.9088 79.4156ZM59.6655 78.2462L55.1934 76.0101L55.1004 76.1961L55.0231 76.3892L59.6655 78.2462ZM60.3534 76.9392L64.7242 79.3674L64.7242 79.3674L60.3534 76.9392ZM61.1789 75.9073L58.1789 71.9073L58.0486 72.0051L57.9249 72.1111L61.1789 75.9073ZM62.6922 75.6322L61.9851 80.5819L65.3794 81.0668L67.0547 78.0752L62.6922 75.6322ZM65.2374 72.8118L68.0927 76.9164L68.1516 76.8754L68.2093 76.8327L65.2374 72.8118ZM68.4017 70.6106L65.7517 66.3706L65.7108 66.3962L65.6703 66.4226L68.4017 70.6106ZM71.2908 68.4094L67.9568 64.6832L67.9066 64.7281L67.8577 64.7743L71.2908 68.4094ZM72.9417 65.3827L68.7176 62.7074L68.2011 63.523L68.0253 64.4722L72.9417 65.3827ZM75.5557 60.7738L71.1311 58.4451L71.1194 58.4674L71.1079 58.4898L75.5557 60.7738ZM78.72 56.4401L82.1855 60.0443L83.0033 59.258L83.4017 58.1957L78.72 56.4401ZM79.4079 55.6147L81.8886 59.9559L82.1082 59.8304L82.3141 59.6833L79.4079 55.6147ZM80.4397 55.2019L81.0599 60.1633L81.3595 60.1259L81.6524 60.0526L80.4397 55.2019ZM81.5403 55.2707L79.7847 59.9524L80.0514 60.0523L80.3277 60.1214L81.5403 55.2707ZM82.5034 55.821L87.4728 55.2688L87.2791 53.5257L86.0389 52.2855L82.5034 55.821ZM82.1594 58.091L77.6285 55.9766L77.5692 56.1038L77.517 56.2341L82.1594 58.091ZM81.1964 60.1547L76.7846 57.8018L76.7537 57.8598L76.7243 57.9186L81.1964 60.1547ZM80.4397 62.2184L75.589 61.0057L75.589 61.0057L80.4397 62.2184ZM80.6461 64.7636L83.1268 69.1048L86.6857 67.0711L85.3895 63.1824L80.6461 64.7636ZM78.72 65.7266L76.7504 61.1309L76.6872 61.158L76.6247 61.1868L78.72 65.7266ZM77.0003 66.6209L74.4809 62.302L74.3975 62.3507L74.3159 62.4025L77.0003 66.6209ZM75.6245 67.8591L71.7547 64.6929L71.6646 64.803L71.5808 64.9182L75.6245 67.8591ZM74.8678 69.8539L69.9359 69.0319L69.2566 73.1076L73.1312 74.5427L74.8678 69.8539ZM77.0691 71.5736L81.8125 69.9925L81.8125 69.9925L77.0691 71.5736ZM77.5506 76.3201L72.5781 76.8435L72.5938 76.9934L72.6186 77.1421L77.5506 76.3201ZM79.3391 78.7965L76.2575 82.734L76.298 82.7657L76.3392 82.7966L79.3391 78.7965ZM79.683 79.1404L75.211 81.3766L75.9563 82.8672L77.447 83.6125L79.683 79.1404ZM80.1646 79.3468L78.3076 83.9891L78.5144 84.0719L78.7278 84.1359L80.1646 79.3468ZM81.4028 79.3468L83.1584 84.0284L83.4041 83.9363L83.6388 83.8189L81.4028 79.3468ZM82.4346 78.8653L80.679 74.1836L80.571 74.2241L80.4649 74.2695L82.4346 78.8653ZM83.5352 78.7277L82.915 83.6891L83.2239 83.7277H83.5352V78.7277ZM84.911 79.5531L81.2252 82.9318L85.195 87.2625L88.8354 82.6514L84.911 79.5531ZM86.8371 79.5531L82.7105 82.3766L87.3187 89.1116L91.2265 81.9474L86.8371 79.5531ZM88.3504 77.8334L89.7871 82.6226L89.7872 82.6225L88.3504 77.8334ZM89.6574 77.6958L89.1052 82.6653L89.1325 82.6683L89.1599 82.671L89.6574 77.6958ZM86 77.5681V81.2959H96V77.5681H86ZM92.5813 86.0202C92.5725 86.0246 92.4465 86.0879 92.2178 86.1453L89.7822 76.4465C89.1505 76.6051 88.588 76.8365 88.1093 77.0758L92.5813 86.0202ZM91.8171 86.4546C92.2332 86.2049 92.4741 86.0738 92.5814 86.0201L88.1092 77.0759C87.6661 77.2974 87.1733 77.579 86.6722 77.8796L91.8171 86.4546ZM91.742 87.1328C92.8696 86.1662 93.5439 84.9751 93.9436 83.8758L84.5457 80.4584C84.5786 80.3681 84.7484 79.9565 85.234 79.5403L91.742 87.1328ZM89.4868 88.5247C90.2169 88.2002 90.9809 87.7676 91.6889 87.1776L85.2871 79.4954C85.369 79.4272 85.4283 79.3896 85.4512 79.3758C85.4741 79.3621 85.4685 79.3675 85.4255 79.3866L89.4868 88.5247ZM88.3174 89.0062C88.6529 88.8571 88.9504 88.7353 89.2118 88.6373L85.7005 79.274C85.2282 79.4511 84.7461 79.6503 84.2561 79.8681L88.3174 89.0062ZM88.6529 88.7294C88.5757 88.8066 88.3203 89.0298 87.8679 89.1806L84.7056 79.6937C83.4277 80.1197 82.3928 80.8473 81.5818 81.6583L88.6529 88.7294ZM72.7927 86.7725C76.5961 89.789 81.092 90.8914 85.8972 90.1326L84.3375 80.255C82.1721 80.5969 80.5228 80.14 79.0066 78.9375L72.7927 86.7725ZM71.4698 85.6338C71.9424 86.1064 72.4514 86.5365 72.9934 86.9236L78.8059 78.7864C78.7058 78.7149 78.6187 78.6405 78.541 78.5628L71.4698 85.6338ZM71.2737 85.4103C71.2821 85.4163 71.2344 85.3834 71.1643 85.2993L78.8465 78.8974C78.3178 78.263 77.7198 77.7256 77.0862 77.273L71.2737 85.4103ZM77.3027 84.6708C75.8141 86.1595 74.0226 86.1868 73.1987 86.0838C72.4085 85.985 71.8511 85.7158 71.6688 85.6246C71.4275 85.504 71.2609 85.3928 71.1925 85.3458C71.1133 85.2914 71.0657 85.2534 71.0565 85.246L77.3034 77.4373C77.114 77.2858 76.692 76.9559 76.1408 76.6803C75.8896 76.5547 75.2749 76.2655 74.4389 76.161C73.5691 76.0523 71.7432 76.0882 70.2317 77.5998L77.3027 84.6708ZM69.5877 83.9148L69.8628 84.2587L77.6716 78.0118L77.3964 77.6679L69.5877 83.9148ZM67.9232 79.8475C68.1083 81.1432 68.5583 82.4621 69.3959 83.6587L77.5882 77.924C77.7838 78.2034 77.821 78.4216 77.8227 78.4333L67.9232 79.8475ZM67.7258 78.3386C67.7963 78.6442 67.8537 79.0188 67.884 79.473L77.8619 78.8078C77.8004 77.8862 77.6744 76.9768 77.4697 76.09L67.7258 78.3386ZM68.2368 79.1677C68.0767 79.0076 67.9484 78.8285 67.8553 78.6501C67.7643 78.4756 67.7247 78.3362 67.7088 78.262L77.4868 76.1667C77.1733 74.7037 76.4849 73.2737 75.3079 72.0967L68.2368 79.1677ZM70.0153 80.0074C70.1226 80.0023 69.9089 80.0306 69.5165 79.9088C69.0752 79.7719 68.4173 79.4424 67.868 78.7557L75.6767 72.5087C73.8032 70.1668 71.0726 69.9457 69.5396 70.0187L70.0153 80.0074ZM71.5667 81.2391C72.6609 79.9721 73.6 78.6154 74.2918 77.1628L65.2631 72.8634C65.0377 73.3368 64.6469 73.9521 63.9985 74.7029L71.5667 81.2391ZM67.9342 84.6059C69.2814 83.6101 70.5002 82.4834 71.5789 81.225L63.9863 74.717C63.4141 75.3846 62.7526 76.0007 61.9903 76.5641L67.9342 84.6059ZM63.5398 87.1159C65.1 86.4558 66.5666 85.6167 67.9342 84.6059L61.9903 76.5641C61.2484 77.1125 60.4679 77.5574 59.6434 77.9062L63.5398 87.1159ZM58.2897 88.2677C60.1553 88.2677 61.9414 87.8198 63.6053 87.0876L59.5779 77.9345C58.9488 78.2113 58.5337 78.2677 58.2897 78.2677V88.2677ZM58.7732 89.9876C60.8498 88.8455 62.2689 87.0473 63.0122 84.9103L53.5672 81.6251C53.5577 81.6524 53.5804 81.5779 53.6734 81.465C53.7699 81.3479 53.8781 81.2673 53.9541 81.2255L58.7732 89.9876ZM54.8589 91.6686C56.3392 91.2649 57.7367 90.6531 59.0336 89.834L53.6937 81.3791C53.2479 81.6606 52.7652 81.8743 52.2277 82.0209L54.8589 91.6686ZM53.815 91.9143C54.014 91.8811 54.9202 91.7465 55.7794 91.3169L51.3072 82.3726C51.5625 82.245 51.77 82.1711 51.8762 82.1357C51.9931 82.0968 52.0809 82.0737 52.1242 82.0628C52.2065 82.0423 52.2326 82.0401 52.171 82.0504L53.815 91.9143ZM52.5115 92.1199C53.1208 92.1199 53.6095 92.0017 53.652 91.9922C53.8135 91.9564 53.9519 91.9183 54.0398 91.8931C54.2222 91.841 54.4098 91.7805 54.574 91.7258L51.4119 82.2389C51.301 82.2759 51.2708 82.2841 51.2927 82.2779C51.3003 82.2757 51.3728 82.2548 51.4827 82.2304C51.5382 82.218 51.6409 82.1963 51.7738 82.1759C51.8421 82.1654 51.9355 82.1526 52.0474 82.1419C52.1548 82.1317 52.3155 82.1199 52.5115 82.1199V92.1199ZM47.9981 90.776C49.6547 92.0184 51.506 92.2045 52.8677 92.1072L52.1552 82.1326C52.2329 82.1271 53.0752 82.0838 53.9981 82.776L47.9981 90.776ZM46.4307 89.4172C46.9207 89.9072 47.4439 90.3603 47.9981 90.776L53.9981 82.776C53.8186 82.6413 53.6539 82.4982 53.5018 82.3462L46.4307 89.4172ZM45.9344 88.9874C46.114 89.1221 46.2787 89.2652 46.4307 89.4172L53.5018 82.3462C53.0118 81.8562 52.4887 81.4031 51.9345 80.9875L45.9344 88.9874ZM47.4211 89.5747C47.4036 89.5747 46.719 89.5758 45.9345 88.9875L51.9344 80.9874C50.4162 79.8488 48.7227 79.5747 47.4211 79.5747V89.5747ZM41.3312 83.0802C41.8257 84.2042 42.3208 85.3518 42.8163 86.5229L52.0259 82.6265C51.5125 81.413 50.9987 80.2218 50.4843 79.0528L41.3312 83.0802ZM39.8971 78.5025C40.1993 80.0742 40.6806 81.6017 41.3312 83.0802L50.4843 79.0528C50.126 78.2383 49.8735 77.4271 49.7172 76.614L39.8971 78.5025ZM40.5453 76.0257C40.8083 74.1845 42.0771 73.3552 42.3789 73.1875L47.2353 81.9291C48.3626 81.3028 50.09 79.9231 50.4448 77.4399L40.5453 76.0257ZM40.495 76.2698V76.7328H50.495V76.2698H40.495ZM47.3961 81.4173C47.9801 80.8713 48.5497 80.3087 49.1048 79.7295L41.8852 72.8102C41.4562 73.2578 41.0169 73.6917 40.5672 74.112L47.3961 81.4173ZM44.5253 83.7508C45.7344 83.0118 46.8417 82.1109 47.7779 81.0186L40.1854 74.5107C40.021 74.7024 39.7525 74.948 39.3107 75.218L44.5253 83.7508ZM43.5221 84.4013C43.8998 84.1495 44.2482 83.9242 44.568 83.7244L39.268 75.2444C38.8541 75.5031 38.4228 75.7823 37.9751 76.0808L43.5221 84.4013ZM42.2292 85.1689C42.517 84.989 42.8324 84.8032 43.1768 84.6118L38.3204 75.8702C37.8393 76.1375 37.3751 76.4102 36.9291 76.689L42.2292 85.1689ZM39.2181 87.4402C40.2242 86.5951 41.2689 85.8117 42.3527 85.0892L36.8057 76.7687C35.413 77.6971 34.0731 78.7022 32.7862 79.7832L39.2181 87.4402ZM36.3799 90.0925C37.2732 89.1216 38.1891 88.2653 39.1256 87.516L32.8787 79.7073C31.5223 80.7925 30.237 81.9998 29.0206 83.3219L36.3799 90.0925ZM30.293 90.7992C29.1252 90.3321 28.4984 89.4838 28.2282 88.9432L37.1724 84.4711C36.627 83.3802 35.6334 82.1651 34.007 81.5145L30.293 90.7992ZM31.3245 91.0193C31.1911 91.0193 30.8023 91.003 30.293 90.7992L34.007 81.5145C33.0391 81.1273 32.1 81.0193 31.3245 81.0193V91.0193ZM31.1374 91.0378C31.1993 91.029 31.2459 91.0242 31.2781 91.0218C31.3103 91.0193 31.3253 91.0193 31.3245 91.0193V81.0193C30.7755 81.0193 30.2383 81.0647 29.7231 81.1383L31.1374 91.0378ZM28.693 90.991C29.6189 91.1762 30.492 91.1468 31.2523 91.02L29.6083 81.1561C29.8182 81.1211 30.1869 81.0917 30.6542 81.1852L28.693 90.991ZM27.4835 92.4428C29.3172 91.9696 31.1055 91.2437 32.6396 90.1134L26.7076 82.0628C26.499 82.2165 25.9944 82.4995 24.9848 82.76L27.4835 92.4428ZM21.4998 92.7715C23.6107 93.2113 25.7138 92.9777 27.6709 92.3906L24.7974 82.8123C24.0029 83.0507 23.6297 83.0005 23.5394 82.9817L21.4998 92.7715ZM18.9765 91.7984C19.6139 92.1171 20.3767 92.4644 21.146 92.6842L23.8931 83.0689C23.9862 83.0955 23.9947 83.1051 23.8923 83.062C23.7991 83.0228 23.6538 82.9567 23.4486 82.8541L18.9765 91.7984ZM17.2008 90.8674C17.8766 91.3179 18.6378 91.6701 19.2895 91.9417L23.1356 82.7109C22.9377 82.6284 22.8056 82.567 22.7264 82.5274C22.639 82.4837 22.6606 82.4887 22.7479 82.547L17.2008 90.8674ZM11.4912 84.6334C12.8321 87.1812 14.7829 89.2554 17.2009 90.8674L22.7479 82.5469C21.5889 81.7743 20.8339 80.9135 20.3404 79.976L11.4912 84.6334ZM9.47599 76.6748C9.59563 79.4266 10.2311 82.0524 11.4209 84.4945L20.4108 80.1148C19.8579 78.9799 19.5303 77.7078 19.4666 76.2405L9.47599 76.6748ZM10.3854 79.4429L10.9357 79.9932L18.0068 72.9221L17.4565 72.3718L10.3854 79.4429ZM10.1709 73.0437C10.262 72.6791 10.4002 72.4325 10.483 72.3084C10.5622 72.1896 10.5995 72.1687 10.5296 72.2333L17.3124 79.5814C18.3305 78.6415 19.4172 77.2894 19.8723 75.4691L10.1709 73.0437ZM10.2272 73.4275C10.2056 73.2982 10.199 73.1577 10.2108 73.0157C10.2226 72.8746 10.2503 72.7588 10.2782 72.6753L19.765 75.8376C20.1957 74.5454 20.3223 73.1707 20.0911 71.7835L10.2272 73.4275ZM10.0363 72.2874C10.1157 72.5452 10.1576 72.7772 10.1739 72.989L20.1444 72.222C20.069 71.2414 19.8816 70.281 19.5941 69.3465L10.0363 72.2874ZM9.55277 69.2471C9.61556 70.1262 9.74077 70.9993 9.9262 71.8646L19.7042 69.7693C19.6145 69.3506 19.5563 68.9396 19.5274 68.5346L9.55277 69.2471ZM9.60809 67.0371C9.45936 67.9295 9.49617 68.7728 9.57064 69.443L19.5095 68.3387C19.5029 68.2796 19.5057 68.2778 19.5057 68.3234C19.5057 68.366 19.5034 68.493 19.472 68.6811L9.60809 67.0371ZM9.9645 65.6833C9.89509 65.961 9.83791 66.1541 9.79664 66.2779L19.2835 69.4402C19.4256 69.0137 19.5519 68.5648 19.6659 68.1087L9.9645 65.6833ZM10.9778 61.495C10.6632 62.8435 10.3255 64.2395 9.9645 65.6833L19.6659 68.1087C20.0387 66.6175 20.3889 65.1703 20.7163 63.7673L10.9778 61.495ZM12.0375 57.1168C11.658 58.5873 11.3021 60.0583 10.9698 61.5298L20.7243 63.7324C21.034 62.3607 21.366 60.9884 21.7203 59.6156L12.0375 57.1168ZM15.3259 46.3905C14.0889 49.911 12.9948 53.4788 12.0435 57.0937L21.7143 59.6387C22.5973 56.283 23.6127 52.972 24.7605 49.7053L15.3259 46.3905ZM19.2486 36.0212C17.8983 39.4201 16.595 42.8645 15.3387 46.3543L24.7476 49.7415C25.9677 46.3524 27.2325 43.0096 28.5421 39.7131L19.2486 36.0212ZM21.3822 42.3759C21.5906 42.3889 21.8387 42.4359 22.1397 42.5488L25.651 33.1855C24.4844 32.7481 23.2651 32.4741 22.006 32.3954L21.3822 42.3759ZM19.4241 42.248C20.0075 42.248 20.5567 42.2824 21.0739 42.347L22.3143 32.4242C21.364 32.3055 20.3999 32.248 19.4241 32.248V42.248ZM16.8604 42.1706C17.7316 42.2219 18.5864 42.248 19.4241 42.248V32.248C18.7943 32.248 18.1357 32.2284 17.4477 32.1879L16.8604 42.1706ZM13.1972 41.3794C14.3637 41.8168 15.583 42.0908 16.8421 42.1695L17.4659 32.189C17.2576 32.176 17.0094 32.129 16.7084 32.0161L13.1972 41.3794ZM12.5017 41.0871L12.9832 41.2935L16.9224 32.102L16.4409 31.8956L12.5017 41.0871ZM13.921 41.4226C14.0569 41.4226 13.9412 41.4296 13.7135 41.4012C13.6491 41.3931 13.2169 41.3438 12.6813 41.1429C12.4294 41.0485 11.8081 40.7964 11.1701 40.2381C10.4678 39.6236 9.47127 38.3624 9.47127 36.4914H19.4713C19.4713 34.6088 18.469 33.3369 17.7552 32.7124C17.1058 32.1441 16.4673 31.8827 16.1925 31.7796C15.611 31.5616 15.11 31.4979 14.9539 31.4784C14.5428 31.427 14.1519 31.4226 13.921 31.4226V41.4226ZM14.0426 41.4411C14.0985 41.4287 14.1412 41.4201 14.1717 41.4143C14.2026 41.4085 14.2165 41.4066 14.2153 41.4067C14.2148 41.4068 14.1909 41.4103 14.147 41.4139C14.1045 41.4175 14.0267 41.4226 13.921 41.4226V31.4226C13.1409 31.4226 12.3974 31.5628 11.8733 31.6792L14.0426 41.4411ZM11.7197 41.6289C12.3181 41.6289 12.9151 41.5957 13.5101 41.5296L12.4058 31.5907C12.1752 31.6164 11.9468 31.6289 11.7197 31.6289V41.6289ZM9.24549 41.299C10.1039 41.5443 10.9473 41.6289 11.7197 41.6289V31.6289C11.6667 31.6289 11.7763 31.6219 11.9927 31.6838L9.24549 41.299ZM5.05025 36.5794C5.20829 37.6856 5.7006 38.8503 6.65364 39.8033C7.56082 40.7105 8.59856 41.1401 9.40642 41.3421L11.8318 31.6407C12.2728 31.7509 13.0239 32.0315 13.7247 32.7323C14.4714 33.4789 14.8376 34.3799 14.9497 35.1652L5.05025 36.5794ZM5 35.1844V35.8723H15V35.1844H5ZM7.2806 29.8987C6.19016 30.8074 5.66891 31.9191 5.41136 32.6918C5.14812 33.4815 5.04874 34.2485 5.00974 34.8725L14.9903 35.4963C14.9971 35.3865 15.0009 35.5459 14.8982 35.8541C14.8011 36.1452 14.4977 36.9015 13.6824 37.5809L7.2806 29.8987ZM10.9612 28.2889C9.5014 28.4511 8.07998 29.0703 6.94598 30.2043L14.0171 37.2753C13.7531 37.5393 13.4298 37.7716 13.0603 37.944C12.6946 38.1146 12.3496 38.1962 12.0655 38.2277L10.9612 28.2889ZM12.8891 28.1207C12.0875 28.1207 11.258 28.1931 10.4287 28.3774L12.598 38.1392C12.5941 38.1401 12.6818 38.1207 12.8891 38.1207V28.1207ZM11.7612 28.3517C11.9112 28.2617 12.1495 28.1673 12.4365 28.1413L13.3418 38.1002C14.6377 37.9824 15.839 37.567 16.9062 36.9267L11.7612 28.3517ZM18.5752 28.2939C17.5993 28.1768 16.5358 27.9976 15.3813 27.7502L13.286 37.5282C14.6997 37.8311 16.0667 38.0646 17.3838 38.2227L18.5752 28.2939ZM20.6347 28.2315C19.9533 28.3204 19.2043 28.3403 18.3782 28.2742L17.5808 38.2424C19.0477 38.3597 20.4999 38.3338 21.9281 38.1475L20.6347 28.2315ZM22.3766 27.7434C21.8276 27.993 21.2614 28.1531 20.6612 28.2281L21.9015 38.1509C23.5026 37.9508 25.0458 37.5147 26.5147 36.8471L22.3766 27.7434ZM24.1778 26.5319C23.5008 27.1474 22.9215 27.5058 22.452 27.7099L26.4393 36.8806C28.0793 36.1676 29.5637 35.1502 30.9045 33.9313L24.1778 26.5319ZM24.3178 24.5774C24.0418 25.7849 23.6335 26.9009 23.098 27.9384L31.9842 32.5248C32.9163 30.719 33.6086 28.8083 34.0664 26.8057L24.3178 24.5774ZM25.6334 19.4655C25.1419 21.1367 24.7014 22.8507 24.3111 24.6069L34.073 26.7762C34.4165 25.2305 34.8014 23.7344 35.2271 22.2871L25.6334 19.4655ZM28.0429 13.9452C27.0564 15.6281 26.2675 17.4453 25.6603 19.3772L35.2002 22.3755C35.602 21.0972 36.0971 19.9794 36.6698 19.0024L28.0429 13.9452ZM33.4527 8.69318C31.2006 9.98006 29.2991 11.7272 28.0062 14.0088L36.7065 18.9389C36.9728 18.4689 37.456 17.9231 38.4141 17.3756L33.4527 8.69318ZM40.0955 8.83741C38.4974 8.03833 36.8259 7.88392 35.3132 8.073L36.5535 17.9958C36.5399 17.9975 36.4335 18.0092 36.2581 17.9841C36.076 17.9581 35.8544 17.8972 35.6234 17.7817L40.0955 8.83741ZM42.0297 9.88491C41.3899 9.51169 40.7452 9.16226 40.0955 8.83741L35.6234 17.7817C36.0743 18.0072 36.5302 18.2539 36.991 18.5227L42.0297 9.88491ZM43.863 17.1793C43.9543 16.7226 44.0738 16.2923 44.2191 15.8855L34.8017 12.5221C34.4884 13.3993 34.241 14.299 34.0572 15.2181L43.863 17.1793ZM43.3097 19.5507C43.5199 18.7625 43.7044 17.972 43.863 17.1793L34.0572 15.2181C33.9406 15.8012 33.8041 16.3864 33.6474 16.974L43.3097 19.5507ZM42.637 21.9389C42.9502 21.0617 43.1976 20.162 43.3815 19.2429L33.5757 17.2818C33.4843 17.7384 33.3648 18.1687 33.2195 18.5755L42.637 21.9389ZM40.7375 25.2466C41.5531 24.268 42.2001 23.1621 42.637 21.9389L33.2195 18.5755C33.1978 18.6364 33.157 18.7228 33.0553 18.8448L40.7375 25.2466ZM42.7359 21.4976C41.9458 18.7325 39.5117 17.6945 38.6913 17.379L35.1015 26.7125C35.0923 26.7089 35.0304 26.6848 34.9322 26.6321C34.8358 26.5804 34.6728 26.4843 34.478 26.3284C34.0959 26.0227 33.4385 25.3572 33.1206 24.2448L42.7359 21.4976ZM42.2628 26.1391C42.8716 24.9215 43.2456 23.2816 42.7359 21.4976L33.1206 24.2448C32.7943 23.1028 33.0766 22.1508 33.3185 21.667L42.2628 26.1391ZM41.263 27.8459C41.6303 27.295 41.9699 26.725 42.2628 26.1391L33.3185 21.6669C33.2446 21.8148 33.1256 22.0244 32.9425 22.2989L41.263 27.8459ZM41.571 26.8802C41.5172 27.2569 41.417 27.5238 41.3568 27.6612C41.2959 27.8006 41.2512 27.8637 41.263 27.8459L32.9425 22.2989C32.452 23.0348 31.864 24.1184 31.6715 25.4659L41.571 26.8802ZM39.5726 29.7566C39.5137 29.8523 39.3086 30.1592 38.8822 30.4735C38.4173 30.816 37.7934 31.0871 37.0739 31.1525L36.1686 21.1936C33.548 21.4318 31.911 23.1263 31.056 24.5156L39.5726 29.7566ZM37.575 32.2748C38.53 31.4391 39.2142 30.4396 39.7166 29.5066L30.9119 24.7656C30.8813 24.8225 30.8568 24.8636 30.8396 24.8909C30.8223 24.9183 30.8139 24.9294 30.8156 24.9272C30.8172 24.9249 30.831 24.9067 30.8585 24.8765C30.886 24.8464 30.9293 24.802 30.9899 24.749L37.575 32.2748ZM38.1746 27.1281C38.5591 27.5476 38.9434 28.2212 39.0323 29.0808C39.115 29.8804 38.9008 30.4405 38.8065 30.6409L29.7583 26.3829C29.2972 27.3628 28.9339 28.6453 29.0854 30.1098C29.2431 31.6343 29.914 32.9156 30.803 33.8854L38.1746 27.1281ZM39.7344 28.9227C39.2545 28.3362 38.7335 27.7378 38.1746 27.1281L30.803 33.8854C31.253 34.3763 31.6492 34.8326 31.9948 35.2551L39.7344 28.9227ZM36.0181 27.2767C36.5166 27.166 37.0249 27.2052 37.4457 27.3455L34.2834 36.8323C35.5297 37.2477 36.8635 37.3328 38.1874 37.0386L36.0181 27.2767ZM36.2338 27.1492C36.0666 27.2209 35.8333 27.3104 35.5216 27.4143L38.6839 36.9011C39.1977 36.7298 39.6982 36.5441 40.173 36.3407L36.2338 27.1492ZM39.2352 26.5386C38.1987 26.5386 37.2561 26.7602 36.4478 27.0633L39.959 36.4266C39.8844 36.4546 39.6297 36.5386 39.2352 36.5386V26.5386ZM44.1295 29.0889C43.3377 28.0332 41.7275 26.5386 39.2352 26.5386V36.5386C37.385 36.5386 36.3709 35.4108 36.1295 35.0889L44.1295 29.0889ZM42.4858 26.5669C39.5904 25.9878 37.4792 27.5712 36.4298 28.7255L43.8292 35.4523C43.7517 35.5375 43.4456 35.856 42.8692 36.1154C42.2237 36.4058 41.3956 36.5469 40.5247 36.3727L42.4858 26.5669ZM44.738 27.1714C43.8752 26.8262 42.9601 26.5903 42.0028 26.4946L41.0077 36.445C40.9991 36.4441 40.9922 36.4431 40.9873 36.4422C40.9824 36.4414 40.98 36.4408 40.9805 36.4409C40.981 36.441 40.9953 36.4446 41.0241 36.4561L44.738 27.1714ZM44.2568 27.0201C44.2785 27.0201 44.2972 27.0218 44.3106 27.0238C44.3239 27.0258 44.3267 27.0273 44.3178 27.0246L41.4443 36.6029C42.3484 36.8741 43.2905 37.0201 44.2568 37.0201V27.0201ZM41.2763 28.347C41.2474 28.3953 41.3686 28.1708 41.7068 27.886C42.0767 27.5745 42.7711 27.1437 43.7593 27.0449L44.7543 36.9953C47.6487 36.7058 49.2112 34.5587 49.8513 33.492L41.2763 28.347ZM48.5139 25.924C46.5171 25.3249 44.6805 25.7709 43.3277 26.4473L47.7999 35.3916C47.5477 35.5177 46.72 35.8261 45.6404 35.5022L48.5139 25.924ZM50.8811 26.8926C50.0818 26.4486 49.2439 26.1214 48.3927 25.8893L45.7616 35.5369C45.9193 35.5799 45.9986 35.6197 46.0247 35.6342L50.8811 26.8926ZM51.378 27.0633C51.1166 26.9653 50.8191 26.8435 50.4836 26.6944L46.4222 35.8325C46.9122 36.0502 47.3944 36.2494 47.8667 36.4266L51.378 27.0633ZM48.087 27.3095C48.3069 27.1629 48.6659 26.9731 49.1568 26.864C49.6648 26.7511 50.199 26.7511 50.707 26.864L48.5377 36.6259C50.5119 37.0646 52.3004 36.5191 53.634 35.63L48.087 27.3095ZM52.8532 26.5463C52.2835 26.5779 51.8461 26.5569 51.5214 26.5136L50.1997 36.4259C51.2508 36.5661 52.3267 36.5909 53.4079 36.5309L52.8532 26.5463ZM54.8538 26.3315C54.2211 26.4369 53.5596 26.5091 52.8678 26.5455L53.3934 36.5317C54.4442 36.4764 55.4795 36.3651 56.4977 36.1954L54.8538 26.3315ZM57.1363 25.901C56.416 26.061 55.6694 26.2025 54.8959 26.3246L56.4556 36.2022C57.4247 36.0492 58.3749 35.8697 59.3056 35.6628L57.1363 25.901ZM59.5792 25.3287C58.7705 25.4904 57.8908 25.6985 56.9485 25.9465L59.4934 35.6173C60.2937 35.4067 60.9733 35.2479 61.5403 35.1345L59.5792 25.3287ZM66.3937 29.3626C65.9154 28.2468 65.1777 27.4976 64.707 27.0792C64.1902 26.6199 63.6344 26.2454 63.1322 25.9441L57.9873 34.5191C58.173 34.6305 58.1675 34.6458 58.0634 34.5533C58.0059 34.5022 57.8842 34.3881 57.7388 34.2063C57.5959 34.0277 57.3844 33.7269 57.2022 33.3018L66.3937 29.3626ZM66.6744 33.6688C67.0974 32.1884 66.9616 30.6879 66.3937 29.3626L57.2022 33.3018C57.0702 32.9937 56.9625 32.6107 56.931 32.1699C56.8993 31.7261 56.9506 31.3016 57.0591 30.9217L66.6744 33.6688ZM66.335 34.977C66.5376 34.3693 66.7167 33.7011 66.8165 33.0024L56.917 31.5881C56.922 31.5534 56.9237 31.5552 56.9128 31.5985C56.9022 31.641 56.8824 31.7122 56.8482 31.8147L66.335 34.977ZM66.5081 33.37C66.4891 33.3085 66.5177 33.3802 66.5347 33.5581C66.5513 33.7326 66.5665 34.1116 66.4423 34.6086L56.7409 32.1832C56.3277 33.8357 56.6545 35.3495 56.9503 36.3109L66.5081 33.37ZM59.8903 40.9324C62.2057 40.7962 64.0567 39.6746 65.3844 38.252L58.0739 31.4288C58.0769 31.4256 58.1858 31.3099 58.4213 31.1884C58.6713 31.0594 58.9782 30.9688 59.3031 30.9497L59.8903 40.9324ZM56.389 40.6586C57.451 40.846 58.5213 40.9411 59.5967 40.9411V30.9411C59.1129 30.9411 58.624 30.8985 58.1268 30.8108L56.389 40.6586ZM55.3685 40.5874C55.6832 40.5677 56.0028 40.5865 56.3365 40.6491L58.1793 30.8203C57.0455 30.6077 55.8975 30.5348 54.7448 30.6069L55.3685 40.5874ZM57.3883 39.5304C57.3491 39.5875 57.148 39.8636 56.7141 40.1306C56.2388 40.4231 55.6551 40.5971 55.0567 40.5971V30.5971C52.2475 30.5971 50.2793 32.2194 49.1479 33.8651L57.3883 39.5304ZM51.867 41.5529C51.9883 41.5315 52.0345 41.5432 52.0555 41.5484L54.4808 31.847C53.0343 31.4854 51.5671 31.4513 50.1292 31.705L51.867 41.5529ZM49.9287 41.9281C50.5292 41.7613 51.0794 41.6539 51.5823 41.5947L50.4139 31.6632C49.3577 31.7875 48.3027 32.0011 47.2523 32.2929L49.9287 41.9281ZM47.1988 42.5417L49.6752 41.9914L47.5059 32.2295L45.0295 32.7798L47.1988 42.5417ZM43.3604 42.8594C44.6532 42.9313 45.9368 42.8221 47.1988 42.5417L45.0294 32.7798C44.6405 32.8663 44.2732 32.8947 43.9151 32.8748L43.3604 42.8594ZM38.9328 40.2333L40.1022 41.4027L47.1732 34.3316L46.0038 33.1622L38.9328 40.2333ZM42.2168 42.5327C44.0582 42.1078 45.6431 41.0219 46.6866 39.3821L38.25 34.0134C38.4182 33.749 38.6708 33.4625 39.0163 33.2207C39.3598 32.9802 39.6993 32.8509 39.9682 32.7888L42.2168 42.5327ZM36.6681 41.4083C38.0668 42.3407 39.8841 42.9312 41.9145 42.5927L40.2705 32.7288C40.6835 32.66 41.1009 32.681 41.4797 32.7757C41.8444 32.8668 42.091 33.005 42.2151 33.0878L36.6681 41.4083ZM36.3146 43.1366C38.5452 43.2429 40.5461 42.521 42.2151 41.4083L36.6681 33.0878C36.5285 33.1809 36.479 33.189 36.5186 33.1767C36.5384 33.1706 36.5748 33.1612 36.6255 33.1545C36.6766 33.1478 36.7327 33.1452 36.7903 33.148L36.3146 43.1366ZM33.7321 43.0735C34.5661 43.0735 35.4268 43.0944 36.3146 43.1366L36.7903 33.148C35.752 33.0985 34.7325 33.0735 33.7321 33.0735V43.0735ZM33.3542 43.096C33.3986 43.0738 33.4185 43.0699 33.4208 43.0694C33.423 43.069 33.4395 43.0651 33.4824 43.0673L33.9818 33.0797C32.2005 32.9907 30.4734 33.356 28.8821 34.1517L33.3542 43.096ZM33.8222 43.1529C33.9072 42.9192 33.9811 42.7507 34.038 42.6359C34.0955 42.5199 34.1254 42.4793 34.1168 42.4914C34.1124 42.4976 33.8583 42.8603 33.2471 43.1479L28.9892 34.0997C26.3281 35.352 25.0744 37.9476 24.4243 39.7354L33.8222 43.1529ZM32.6973 46.2584C33.0378 45.2368 33.3986 44.2395 33.7795 43.2662L24.4671 39.6222C24.0225 40.7584 23.6037 41.9164 23.2105 43.0961L32.6973 46.2584ZM31.5757 49.4841L32.6764 46.3198L23.2314 43.0346L22.1308 46.1989L31.5757 49.4841ZM28.4163 57.8434C29.4834 55.106 30.5272 52.3458 31.5476 49.5628L22.1589 46.1202C21.1615 48.8404 20.1416 51.5374 19.0992 54.2113L28.4163 57.8434ZM24.8061 66.1426C26.1576 63.3912 27.3669 60.6105 28.4327 57.8007L19.0828 54.2541C18.1308 56.7639 17.0471 59.257 15.8305 61.7336L24.8061 66.1426ZM25.4371 69.7647C25.2721 67.8676 25.2316 65.9999 25.3134 64.1601L15.3232 63.7161C15.2216 66.0036 15.2728 68.3091 15.4747 70.631L25.4371 69.7647ZM26.0444 75.9055C25.8196 73.8822 25.6171 71.8353 25.4371 69.7647L15.4747 70.631C15.6615 72.7795 15.8718 74.9058 16.1056 77.0098L26.0444 75.9055ZM25.8539 77.7939C25.8552 77.8105 25.8562 77.8464 25.8502 77.896C25.8442 77.9461 25.8329 77.9953 25.8184 78.0388L16.3316 74.8765C15.9309 76.0786 15.788 77.3211 15.8834 78.5609L25.8539 77.7939ZM26.0169 78.171C25.9085 77.8893 25.8447 77.6394 25.8105 77.4171L15.9268 78.9377C16.076 79.9077 16.3332 80.8501 16.6834 81.7608L26.0169 78.171ZM26.4945 79.1662C26.309 78.8483 26.1501 78.5174 26.0169 78.171L16.6834 81.7608C17.0088 82.6067 17.4002 83.4223 17.8567 84.205L26.4945 79.1662ZM26.9445 79.7395C26.7687 79.5417 26.5834 79.299 26.3939 79.0012L17.9573 84.37C18.4098 85.0811 18.9125 85.7556 19.4704 86.3832L26.9445 79.7395ZM21.0125 78.2569L19.7743 79.4263L26.6406 86.6964L27.8788 85.527L21.0125 78.2569ZM30.234 81.3934L28.5143 78.9858L20.377 84.7982L22.0967 87.2058L30.234 81.3934ZM24.0835 79.04C23.3989 79.7773 22.7689 80.5144 22.2022 81.251L30.1285 87.3481C30.4791 86.8924 30.9038 86.3913 31.4115 85.8445L24.0835 79.04ZM26.6189 76.6806C25.7298 77.3919 24.8883 78.1778 24.0922 79.0307L31.4028 85.8539C31.8908 85.331 32.3792 84.8786 32.8659 84.4893L26.6189 76.6806ZM29.6388 74.6683C28.4929 75.2412 27.4374 75.9662 26.4677 76.8065L33.017 84.3634C33.4232 84.0115 33.7893 83.7734 34.1109 83.6125L29.6388 74.6683ZM33.3448 73.391C31.9966 73.6289 30.7237 74.0924 29.5354 74.7215L34.2142 83.5594C34.5852 83.363 34.8715 83.2761 35.0826 83.2389L33.3448 73.391ZM31.1079 74.2831C30.9733 74.4626 30.8301 74.6274 30.6781 74.7794L37.7492 81.8505C38.2392 81.3605 38.6922 80.8373 39.1079 80.2831L31.1079 74.2831ZM33.096 72.3202C32.2963 72.8914 31.6419 73.5712 31.1079 74.2831L39.1079 80.2831C39.1242 80.2613 39.066 80.3449 38.9083 80.4575L33.096 72.3202ZM35.8213 70.9878C34.6164 71.2891 33.5883 71.8725 32.7482 72.5926L39.2561 80.1852C39.0581 80.3549 38.7178 80.5715 38.2467 80.6893L35.8213 70.9878ZM40.0597 71.1639C38.8228 70.7516 37.1864 70.5173 35.4529 71.0951L38.6151 80.582C37.7071 80.8847 37.0337 80.6962 36.8974 80.6508L40.0597 71.1639ZM38.7307 69.4148C37.9368 70.2722 37.0404 70.9796 36.0272 71.5495L40.9299 80.2652C42.8517 79.1842 44.5693 77.8279 46.0683 76.2089L38.7307 69.4148ZM41.4659 66.3948C40.5335 67.4093 39.6015 68.4383 38.6698 69.4818L46.1292 76.1419C47.0294 75.1337 47.9292 74.1403 48.8286 73.1617L41.4659 66.3948ZM42.696 61.5225C41.5917 63.8539 40.7741 66.2662 40.2534 68.7538L50.0412 70.8027C50.396 69.1076 50.9567 67.4431 51.7334 65.8034L42.696 61.5225ZM49.4861 53.1472C46.5522 55.3769 44.2758 58.1875 42.696 61.5225L51.7334 65.8034C52.6301 63.9104 53.8848 62.3644 55.5369 61.1088L49.4861 53.1472ZM49.0014 51.7883C46.8926 54.1314 47.2144 56.9581 47.7436 58.6337L57.2794 55.6223C57.2823 55.6315 57.3066 55.7096 57.3251 55.8475C57.3437 55.9863 57.3594 56.2074 57.3302 56.4903C57.2653 57.1176 56.9959 57.8539 56.4343 58.478L49.0014 51.7883ZM53.9165 49.3912C52.026 49.5366 50.4078 50.3721 49.1823 51.5976L56.2534 58.6687C56.1254 58.7966 55.9151 58.967 55.6146 59.1107C55.3086 59.257 54.9865 59.3384 54.6834 59.3617L53.9165 49.3912ZM58.862 50.6977C57.4164 49.734 55.7243 49.262 53.9437 49.3892L54.6562 59.3637C54.4441 59.3789 54.1926 59.3616 53.9288 59.2905C53.6665 59.2199 53.4593 59.1144 53.315 59.0182L58.862 50.6977ZM61.9827 56.4401C61.9827 55.3925 61.7664 54.1918 61.112 53.034C60.4454 51.8546 59.487 51.0092 58.459 50.4556L53.718 59.2603C53.2861 59.0278 52.7749 58.6066 52.4064 57.9546C52.05 57.3241 51.9827 56.754 51.9827 56.4401H61.9827ZM61.7216 58.7768C62.0005 57.8004 62.0807 56.7707 61.9325 55.733L52.033 57.1472C51.9765 56.7516 52.0108 56.3639 52.1063 56.0295L61.7216 58.7768ZM61.3822 59.8785C61.4999 59.5254 61.6128 59.1573 61.7216 58.7767L52.1063 56.0296C52.0316 56.291 51.9611 56.5191 51.8954 56.7163L61.3822 59.8785ZM59.9963 64.2568C60.6836 62.6532 61.199 60.9917 61.5417 59.278L51.7359 57.3168C51.5283 58.3547 51.2182 59.353 50.8049 60.3176L59.9963 64.2568ZM58.0509 68.3721C58.7493 67.0251 59.3979 65.6532 59.9963 64.2568L50.8049 60.3176C50.3027 61.4893 49.7589 62.6396 49.1733 63.769L58.0509 68.3721ZM55.988 72.2133C56.6988 70.9339 57.3864 69.6535 58.0509 68.3721L49.1733 63.769C48.5537 64.964 47.9114 66.16 47.2464 67.3569L55.988 72.2133ZM54.6931 75.2673C55.0729 74.166 55.5272 73.1065 56.056 72.0867L47.1784 67.4836C46.4232 68.9402 45.7768 70.4488 45.2394 72.0074L54.6931 75.2673ZM53.985 72.776C54.4507 73.8237 54.5001 75.1436 53.9401 76.3338C53.4895 77.2913 52.8488 77.7249 52.7398 77.7976L47.1928 69.4771C46.5334 69.9166 45.5259 70.7285 44.8919 72.0758C44.1484 73.6558 44.1979 75.377 44.8469 76.8374L53.985 72.776ZM54.2641 73.2714C54.1309 73.0716 54.0429 72.9062 53.985 72.7761L44.8469 76.8374C45.1559 77.5327 45.5265 78.1928 45.9436 78.8184L54.2641 73.2714ZM55.5854 77.1455C55.5854 75.2169 54.7193 73.7268 53.8667 72.7524L46.341 79.3374C46.1304 79.0968 45.5854 78.3404 45.5854 77.1455H55.5854ZM51.0757 82.8691C51.716 82.6332 52.6589 82.23 53.5111 81.5198C54.3855 80.7911 55.8669 79.0862 55.5468 76.5254L45.624 77.7657C45.3497 75.5718 46.6477 74.2223 47.1093 73.8375C47.5488 73.4713 47.8496 73.4006 47.6187 73.4857L51.0757 82.8691ZM53.4233 76.7309C53.7389 77.1165 54.0638 77.7185 54.1568 78.4931C54.2471 79.2454 54.079 79.8294 53.9429 80.147L44.7515 76.2078C44.3402 77.1674 44.069 78.359 44.228 79.6845C44.3898 81.0324 44.9555 82.1732 45.6838 83.0633L53.4233 76.7309ZM54.9749 78.9474C54.5 78.0768 53.9243 77.2793 53.27 76.5523L45.8371 83.2419C46.0083 83.4321 46.1205 83.5976 46.1959 83.7359L54.9749 78.9474ZM50.9101 76.3919C51.0855 76.3668 51.1919 76.3786 51.2056 76.3803L49.9652 86.303C50.7126 86.3965 51.5069 86.4082 52.3243 86.2914L50.9101 76.3919ZM48.2715 78.0726C48.4488 77.7888 48.7625 77.3928 49.2699 77.0415C49.7969 76.6766 50.3973 76.4552 50.9971 76.3803L52.2373 86.3031C54.3594 86.0378 55.8763 84.7728 56.7515 83.3726L48.2715 78.0726ZM51.5278 76.5581C52.3059 76.1259 53.188 75.9846 53.9924 76.0996C54.7068 76.2016 55.1505 76.4726 55.285 76.5623L49.738 84.8828C51.1333 85.813 53.7013 86.7903 56.3842 85.2997L51.5278 76.5581ZM52.4645 76.0073C52.1887 76.2003 51.9403 76.3466 51.7199 76.4568L56.1921 85.401C56.889 85.0526 57.5577 84.6486 58.1991 84.1996L52.4645 76.0073ZM54.9909 74.5938C54.0639 74.9801 53.1966 75.4738 52.3909 76.0598L58.2727 84.1471C58.4759 83.9993 58.6634 83.8969 58.837 83.8246L54.9909 74.5938ZM61.1449 74.9434C59.534 74.138 57.3762 73.6743 55.119 74.5425L58.7089 83.8759C58.2375 84.0572 57.7584 84.105 57.3453 84.0623C56.9595 84.0224 56.7265 83.9146 56.6728 83.8877L61.1449 74.9434ZM55.0231 76.3892C55.0688 76.2749 55.1748 76.0786 55.3733 75.88L62.4444 82.9511C63.2849 82.1105 63.8953 81.1346 64.3079 80.1031L55.0231 76.3892ZM55.9826 74.511C55.7153 74.9921 55.4523 75.4922 55.1934 76.0101L64.1376 80.4822C64.3373 80.083 64.5329 79.7117 64.7242 79.3674L55.9826 74.511ZM57.9249 72.1111C57.1039 72.8148 56.4666 73.6397 55.9826 74.511L64.7242 79.3674C64.6988 79.4131 64.6118 79.5502 64.4328 79.7036L57.9249 72.1111ZM63.3993 70.6824C61.9943 70.4817 59.9808 70.5559 58.1789 71.9073L64.1788 79.9074C63.1107 80.7085 62.1061 80.5992 61.9851 80.5819L63.3993 70.6824ZM62.3821 68.7073C60.6911 69.8836 59.3331 71.3973 58.3297 73.1892L67.0547 78.0752C67.3354 77.5741 67.6741 77.2076 68.0927 76.9164L62.3821 68.7073ZM65.6703 66.4226C64.5305 67.166 63.3955 67.9557 62.2654 68.791L68.2093 76.8327C69.1888 76.1088 70.1634 75.431 71.133 74.7987L65.6703 66.4226ZM67.8577 64.7743C67.3039 65.2973 66.6109 65.8336 65.7517 66.3706L71.0517 74.8506C72.3937 74.0118 73.6268 73.0806 74.7239 72.0444L67.8577 64.7743ZM68.0253 64.4722C68.0111 64.5489 67.9961 64.5996 67.9858 64.6295C67.9756 64.6588 67.9685 64.6719 67.9676 64.6737C67.9667 64.6753 67.9679 64.6731 67.97 64.6704C67.972 64.6679 67.9692 64.6721 67.9568 64.6832L74.6248 72.1356C76.3858 70.5599 77.4439 68.5298 77.8581 66.2931L68.0253 64.4722ZM71.1079 58.4898C70.2939 60.0748 69.4963 61.4779 68.7176 62.7074L77.1658 68.0579C78.1298 66.5359 79.0748 64.8664 80.0035 63.0578L71.1079 58.4898ZM75.2545 52.8359C73.6108 54.4164 72.2515 56.3163 71.1311 58.4451L79.9803 63.1025C80.6943 61.746 81.4446 60.7568 82.1855 60.0443L75.2545 52.8359ZM76.9272 51.2734C75.5299 52.0719 74.5591 53.2959 74.0383 54.6846L83.4017 58.1957C83.2918 58.4886 83.1131 58.8273 82.8362 59.1595C82.5567 59.4949 82.2289 59.7614 81.8886 59.9559L76.9272 51.2734ZM79.8195 50.2405C78.5732 50.3963 77.4521 50.8672 76.5017 51.546L82.3141 59.6833C82.0057 59.9036 81.5724 60.0992 81.0599 60.1633L79.8195 50.2405ZM83.2959 50.5891C82.0161 50.1091 80.6147 50.0043 79.2271 50.3512L81.6524 60.0526C80.9985 60.2161 80.3308 60.1571 79.7847 59.9524L83.2959 50.5891ZM86.0389 52.2855C85.1425 51.389 84.0254 50.7381 82.753 50.42L80.3277 60.1214C79.789 59.9867 79.314 59.7027 78.9678 59.3565L86.0389 52.2855ZM86.6903 60.2055C87.4356 58.6085 87.656 56.9178 87.4728 55.2688L77.534 56.3732C77.5358 56.3895 77.5294 56.346 77.5426 56.2586C77.5563 56.1683 77.5853 56.0693 77.6285 55.9766L86.6903 60.2055ZM85.6081 62.5077C86.0565 61.6671 86.4555 60.8138 86.8018 59.948L77.517 56.2341C77.3131 56.744 77.0701 57.2666 76.7846 57.8018L85.6081 62.5077ZM85.2904 63.431C85.3901 63.0323 85.5191 62.6895 85.6685 62.3908L76.7243 57.9186C76.2316 58.9039 75.8562 59.9369 75.589 61.0057L85.2904 63.431ZM85.3895 63.1824C85.3325 63.0115 85.3338 62.9565 85.3374 63.0009C85.3415 63.052 85.3462 63.2081 85.2904 63.431L75.589 61.0057C75.1086 62.9274 75.3811 64.78 75.9027 66.3447L85.3895 63.1824ZM80.6896 70.3223C81.5165 69.9679 82.3289 69.5607 83.1268 69.1048L78.1654 60.4223C77.6792 60.7002 77.2075 60.935 76.7504 61.1309L80.6896 70.3223ZM79.5196 70.9397C79.9281 70.7015 80.3595 70.4768 80.8153 70.2664L76.6247 61.1868C75.8881 61.5268 75.1731 61.8982 74.4809 62.302L79.5196 70.9397ZM79.4943 71.0253C79.6006 70.8953 79.6673 70.8502 79.6846 70.8392L74.3159 62.4025C73.3243 63.0335 72.4739 63.8139 71.7547 64.6929L79.4943 71.0253ZM79.7998 70.6759C79.8237 70.5327 79.8441 70.4857 79.8352 70.5094C79.8253 70.5355 79.7797 70.6466 79.6682 70.7999L71.5808 64.9182C70.6288 66.2272 70.1595 67.6904 69.9359 69.0319L79.7998 70.6759ZM81.8125 69.9925C80.8274 67.0373 78.1669 65.7439 76.6044 65.1652L73.1312 74.5427C73.4519 74.6614 73.4382 74.7004 73.2686 74.5679C73.079 74.4198 72.5994 73.9761 72.3256 73.1548L81.8125 69.9925ZM82.413 73.8437C82.413 72.554 82.2334 71.2553 81.8125 69.9925L72.3256 73.1548C72.3633 73.2677 72.413 73.4824 72.413 73.8437H82.413ZM82.5231 75.7966C82.4475 75.0783 82.413 74.4286 82.413 73.8437H72.413C72.413 74.8179 72.4702 75.8192 72.5781 76.8435L82.5231 75.7966ZM82.4206 74.859C82.1538 74.6502 82.1066 74.5648 82.1543 74.6308C82.2111 74.7095 82.4001 75.0035 82.4825 75.4981L72.6186 77.1421C73.0548 79.7591 74.7798 81.5775 76.2575 82.734L82.4206 74.859ZM84.1551 76.9042C83.5395 75.673 82.5577 74.9604 82.339 74.7964L76.3392 82.7966C76.3124 82.7764 76.1898 82.6838 76.0271 82.5212C75.9424 82.4365 75.8221 82.3082 75.689 82.1371C75.5591 81.97 75.3804 81.7155 75.211 81.3766L84.1551 76.9042ZM82.0216 74.7044C81.9306 74.668 81.873 74.644 81.8418 74.6307C81.8268 74.6243 81.8251 74.6233 81.8337 74.6273C81.8403 74.6303 81.8716 74.6445 81.9191 74.6683L77.447 83.6125C77.744 83.7611 78.0781 83.8974 78.3076 83.9891L82.0216 74.7044ZM79.6471 74.6651C80.5146 74.3398 81.2507 74.4525 81.6013 74.5577L78.7278 84.1359C79.9956 84.5162 81.5572 84.6289 83.1584 84.0284L79.6471 74.6651ZM80.4649 74.2695C80.0401 74.4516 79.6065 74.6547 79.1667 74.8746L83.6388 83.8189C83.9327 83.672 84.1871 83.554 84.4042 83.461L80.4649 74.2695ZM84.1554 73.7663C82.9376 73.6141 81.7569 73.7794 80.679 74.1836L84.1901 83.5469C83.846 83.676 83.399 83.7496 82.915 83.6891L84.1554 73.7663ZM88.5968 76.1745C87.8524 75.3625 86.1334 73.7277 83.5352 73.7277V83.7277C82.6045 83.7277 81.9388 83.4151 81.6162 83.2215C81.3055 83.0351 81.1802 82.8826 81.2252 82.9318L88.5968 76.1745ZM90.9636 76.7297C90.342 75.8212 88.7242 73.8997 85.9084 73.8997C83.2325 73.8997 81.6109 75.6641 80.9866 76.4549L88.8354 82.6514C88.7955 82.7019 88.5822 82.9677 88.1584 83.2453C87.7049 83.5425 86.9305 83.8997 85.9084 83.8997C83.7347 83.8997 82.736 82.4138 82.7105 82.3766L90.9636 76.7297ZM86.9137 73.0443C85.4031 73.4974 84.4105 74.4544 83.8746 75.0634C83.2877 75.7303 82.8208 76.4747 82.4476 77.1589L91.2265 81.9474C91.4036 81.6227 91.4642 81.576 91.3817 81.6697C91.3337 81.7242 91.1988 81.8702 90.9671 82.0412C90.7356 82.2121 90.3419 82.4562 89.7871 82.6226L86.9137 73.0443ZM90.2096 72.7264C89.0341 72.5958 87.9187 72.7428 86.9136 73.0443L89.7872 82.6225C89.6994 82.6489 89.4553 82.7042 89.1052 82.6653L90.2096 72.7264ZM89.6059 72.7664C89.7494 72.7247 89.9436 72.6995 90.1549 72.7207L89.1599 82.671C90.2663 82.7817 91.3555 82.6713 92.3941 82.3698L89.6059 72.7664Z" fill="white" mask="url(#path-1-outside-1_101_9)"/>
</svg>
