<svg width="38" height="14" viewBox="0 0 38 14" fill="none" xmlns="http://www.w3.org/2000/svg">
<path d="M9.33203 4.52734C9.22266 4.64453 9.10156 4.70703 8.96875 4.71484C8.83594 4.71484 8.70312 4.70312 8.57031 4.67969C8.44531 4.65625 8.32031 4.64844 8.19531 4.65625C8.07812 4.65625 7.97656 4.71875 7.89062 4.84375C7.76562 4.8125 7.63672 4.80859 7.50391 4.83203C7.37109 4.84766 7.23438 4.875 7.09375 4.91406C6.95312 4.94531 6.8125 4.97656 6.67188 5.00781C6.53125 5.03906 6.39062 5.05078 6.25 5.04297L6.05078 4.84375C5.99609 4.92969 5.91797 4.98438 5.81641 5.00781C5.72266 5.02344 5.62891 5 5.53516 4.9375C5.37109 5.04688 5.20703 5.09766 5.04297 5.08984C4.87891 5.08203 4.71875 5.07812 4.5625 5.07812C4.40625 5.07031 4.25781 5.10156 4.11719 5.17188C3.98438 5.23438 3.87109 5.39453 3.77734 5.65234C3.70703 5.83203 3.64062 6.01562 3.57812 6.20312C3.51562 6.38281 3.45312 6.5625 3.39062 6.74219C3.21875 7.21094 3.04297 7.67578 2.86328 8.13672C2.69141 8.58984 2.49609 9.03906 2.27734 9.48438C2.26172 9.83594 2.26953 10.1914 2.30078 10.5508C2.33203 10.9102 2.36719 11.2656 2.40625 11.6172C2.375 11.7109 2.36328 11.8086 2.37109 11.9102C2.38672 12.0117 2.41406 12.1133 2.45312 12.2148C2.49219 12.3164 2.53906 12.4141 2.59375 12.5078C2.64844 12.5938 2.70703 12.6719 2.76953 12.7422L2.98047 12.543L3.27344 12.9531C3.35156 12.8516 3.44141 12.7461 3.54297 12.6367C3.65234 12.5195 3.76562 12.4141 3.88281 12.3203C4 12.2188 4.12109 12.1367 4.24609 12.0742C4.37891 12.0039 4.51172 11.957 4.64453 11.9336C4.69922 11.8789 4.75 11.8203 4.79688 11.7578C4.84375 11.6953 4.89453 11.6445 4.94922 11.6055C5.00391 11.5586 5.0625 11.5273 5.125 11.5117C5.19531 11.4883 5.27734 11.4922 5.37109 11.5234C5.62109 11.3828 5.84375 11.207 6.03906 10.9961C6.23438 10.7773 6.42969 10.5625 6.625 10.3516C6.82031 10.1328 7.02344 9.93359 7.23438 9.75391C7.45312 9.57422 7.70703 9.44922 7.99609 9.37891C7.80859 9.83203 7.57031 10.2734 7.28125 10.7031C6.99219 11.125 6.66797 11.5039 6.30859 11.8398C6.21484 11.9492 6.09766 12.0469 5.95703 12.1328C5.89453 12.1719 5.82812 12.2148 5.75781 12.2617C5.6875 12.3008 5.62109 12.3398 5.55859 12.3789C5.34766 12.5195 5.14453 12.6719 4.94922 12.8359C4.75391 12.9922 4.56641 13.168 4.38672 13.3633C4.36328 13.3164 4.33203 13.2852 4.29297 13.2695C4.25391 13.2539 4.20703 13.2461 4.15234 13.2461C4.10547 13.2461 4.05469 13.25 4 13.2578C3.95312 13.2656 3.91016 13.2656 3.87109 13.2578C3.72266 13.3672 3.52734 13.4531 3.28516 13.5156C3.05078 13.5859 2.83984 13.6016 2.65234 13.5625C2.59766 13.5469 2.52344 13.5156 2.42969 13.4688C2.33594 13.4297 2.26562 13.3945 2.21875 13.3633C1.91406 13.1602 1.68359 12.9102 1.52734 12.6133C1.37891 12.3086 1.29688 11.9766 1.28125 11.6172L1.1875 11.5234C1.28906 11.4297 1.35156 11.3359 1.375 11.2422C1.40625 11.1484 1.41406 11.0547 1.39844 10.9609C1.39062 10.8594 1.37109 10.7578 1.33984 10.6562C1.31641 10.5469 1.30078 10.4375 1.29297 10.3281C1.28516 10.2578 1.28516 10.1992 1.29297 10.1523C1.30859 10.1055 1.32422 10.0508 1.33984 9.98828C1.40234 9.73828 1.46094 9.49609 1.51562 9.26172C1.57031 9.01953 1.62891 8.77734 1.69141 8.53516C1.84766 7.94141 2.02734 7.35547 2.23047 6.77734C2.44141 6.19141 2.66016 5.61328 2.88672 5.04297C2.76172 4.99609 2.63672 4.96875 2.51172 4.96094C2.38672 4.94531 2.25781 4.9375 2.125 4.9375C2 4.9375 1.87109 4.93359 1.73828 4.92578C1.61328 4.91797 1.48828 4.89062 1.36328 4.84375C1.30859 4.82031 1.28125 4.80859 1.28125 4.80859C1.28125 4.80078 1.25 4.79688 1.1875 4.79688C1.14844 4.79688 1.09375 4.80469 1.02344 4.82031C0.953125 4.82812 0.882812 4.83203 0.8125 4.83203C0.742188 4.83203 0.679688 4.82422 0.625 4.80859C0.5625 4.79297 0.527344 4.75781 0.519531 4.70312V4.58594C0.527344 4.46094 0.554688 4.37891 0.601562 4.33984C0.648438 4.29297 0.707031 4.26562 0.777344 4.25781C0.847656 4.24219 0.925781 4.23438 1.01172 4.23438C1.09766 4.22656 1.17969 4.19922 1.25781 4.15234C1.47656 4.19922 1.68359 4.23438 1.87891 4.25781C2.07422 4.27344 2.26172 4.26953 2.44141 4.24609C2.62891 4.22266 2.80859 4.17188 2.98047 4.09375C3.16016 4.01562 3.33594 3.89844 3.50781 3.74219C3.63281 3.5 3.72656 3.24219 3.78906 2.96875C3.85156 2.6875 3.92188 2.41406 4 2.14844C4.08594 1.875 4.19531 1.625 4.32812 1.39844C4.46094 1.16406 4.66406 0.96875 4.9375 0.8125C5.0625 0.796875 5.17188 0.8125 5.26562 0.859375C5.35938 0.90625 5.45312 0.957031 5.54688 1.01172C5.50781 1.12109 5.47656 1.23438 5.45312 1.35156C5.42969 1.46875 5.40234 1.58594 5.37109 1.70312C5.34766 1.82031 5.31641 1.93359 5.27734 2.04297C5.23828 2.15234 5.17969 2.25391 5.10156 2.34766C5.20312 2.38672 5.26172 2.43359 5.27734 2.48828C5.29297 2.54297 5.28516 2.60156 5.25391 2.66406C5.22266 2.72656 5.18359 2.79297 5.13672 2.86328C5.08984 2.93359 5.0625 2.99609 5.05469 3.05078C4.96875 3.05859 4.89453 3.11328 4.83203 3.21484C4.77734 3.31641 4.71875 3.39453 4.65625 3.44922C4.59375 3.58203 4.60547 3.69531 4.69141 3.78906C4.77734 3.88281 4.85547 3.97266 4.92578 4.05859C4.99609 4.08203 5.06641 4.08594 5.13672 4.07031C5.20703 4.04688 5.26953 4.02344 5.32422 4C5.38672 3.97656 5.44531 3.96484 5.5 3.96484C5.55469 3.96484 5.60547 3.99609 5.65234 4.05859C5.73047 3.97266 5.80859 3.9375 5.88672 3.95312C5.96484 3.96094 6.04297 3.98047 6.12109 4.01172C6.19922 4.03516 6.27734 4.04688 6.35547 4.04688C6.43359 4.03906 6.50781 3.97656 6.57812 3.85938C6.67188 3.8125 6.75781 3.80078 6.83594 3.82422C6.92188 3.84766 7 3.87891 7.07031 3.91797C7.14062 3.94922 7.20703 3.97656 7.26953 4C7.33984 4.01562 7.41016 4 7.48047 3.95312C7.59766 3.96875 7.72656 3.97266 7.86719 3.96484C8.01562 3.95703 8.16016 3.94141 8.30078 3.91797C8.44922 3.89453 8.59375 3.86719 8.73438 3.83594C8.88281 3.79688 9.01562 3.76562 9.13281 3.74219C9.25 3.8125 9.32031 3.875 9.34375 3.92969C9.36719 3.98438 9.37109 4.03906 9.35547 4.09375C9.34766 4.14844 9.33203 4.21094 9.30859 4.28125C9.29297 4.34375 9.30078 4.42578 9.33203 4.52734ZM14.6875 12.4141C14.5938 12.4141 14.5195 12.418 14.4648 12.4258C14.418 12.4258 14.375 12.4297 14.3359 12.4375C14.2969 12.4453 14.2539 12.4609 14.207 12.4844C14.1602 12.5078 14.0977 12.543 14.0195 12.5898C13.9883 12.6758 13.9453 12.7422 13.8906 12.7891C13.8438 12.8281 13.7852 12.8633 13.7148 12.8945C13.6523 12.918 13.5859 12.9453 13.5156 12.9766C13.4453 13 13.3789 13.043 13.3164 13.1055C12.7227 13.1992 12.1992 13.0664 11.7461 12.707C11.6914 12.668 11.6406 12.625 11.5938 12.5781C11.5547 12.5312 11.5078 12.4883 11.4531 12.4492C11.4141 12.418 11.3906 12.4062 11.3828 12.4141C11.3828 12.4141 11.3672 12.3945 11.3359 12.3555C11.2812 12.2773 11.2461 12.1836 11.2305 12.0742C11.2227 11.957 11.207 11.8477 11.1836 11.7461C11.1602 11.6367 11.1133 11.5469 11.043 11.4766C10.9805 11.3984 10.8672 11.3633 10.7031 11.3711C10.625 11.5352 10.5117 11.7031 10.3633 11.875C10.2227 12.0391 10.0625 12.1875 9.88281 12.3203C9.70312 12.4531 9.51172 12.5625 9.30859 12.6484C9.11328 12.7344 8.92578 12.7773 8.74609 12.7773C8.68359 12.957 8.57422 13.0898 8.41797 13.1758C8.26953 13.2695 8.10938 13.3398 7.9375 13.3867C7.92188 13.3945 7.89062 13.4023 7.84375 13.4102C7.79688 13.4258 7.76953 13.4336 7.76172 13.4336C7.65234 13.4414 7.56641 13.4219 7.50391 13.375C7.44141 13.3281 7.38281 13.2773 7.32812 13.2227C7.27344 13.168 7.21484 13.1172 7.15234 13.0703C7.08984 13.0234 7.00391 13 6.89453 13C6.80859 12.7969 6.72266 12.5977 6.63672 12.4023C6.55078 12.207 6.48828 12.0078 6.44922 11.8047C6.51953 11.7656 6.55859 11.7188 6.56641 11.6641C6.56641 11.6016 6.56641 11.5391 6.56641 11.4766C6.44141 11.4375 6.37891 11.3906 6.37891 11.3359C6.37109 11.2734 6.38281 11.2109 6.41406 11.1484C6.4375 11.0859 6.46484 11.0273 6.49609 10.9727C6.51953 10.9102 6.50391 10.8594 6.44922 10.8203C6.51172 10.3438 6.64844 9.88281 6.85938 9.4375C7.07031 8.99219 7.37109 8.62109 7.76172 8.32422C7.71484 8.17578 7.72656 8.0625 7.79688 7.98438C7.875 7.90625 7.96484 7.86328 8.06641 7.85547C8.17578 7.84766 8.27734 7.875 8.37109 7.9375C8.47266 7.99219 8.52344 8.08203 8.52344 8.20703C8.53125 8.26172 8.52734 8.31641 8.51172 8.37109C8.49609 8.42578 8.48047 8.47656 8.46484 8.52344C8.41797 8.75781 8.34766 8.98438 8.25391 9.20312C8.16016 9.42188 8.05859 9.63672 7.94922 9.84766C7.83984 10.0586 7.72656 10.2695 7.60938 10.4805C7.5 10.6914 7.40625 10.9102 7.32812 11.1367C7.23438 11.1992 7.20312 11.2656 7.23438 11.3359C7.26562 11.4062 7.30469 11.4766 7.35156 11.5469C7.40625 11.6094 7.43359 11.6719 7.43359 11.7344C7.44141 11.7969 7.37109 11.8555 7.22266 11.9102C7.17578 12.0195 7.1875 12.1172 7.25781 12.2031C7.32812 12.2812 7.38672 12.3633 7.43359 12.4492C7.49609 12.457 7.55469 12.457 7.60938 12.4492C7.67188 12.4414 7.72266 12.4062 7.76172 12.3438C7.85547 12.4062 7.9375 12.418 8.00781 12.3789C8.08594 12.3398 8.16406 12.293 8.24219 12.2383C8.32812 12.1758 8.41797 12.125 8.51172 12.0859C8.61328 12.0469 8.72656 12.0586 8.85156 12.1211C8.90625 12.0664 8.94922 12 8.98047 11.9219C9.01953 11.8438 9.05859 11.7695 9.09766 11.6992C9.13672 11.6289 9.18359 11.5703 9.23828 11.5234C9.30078 11.4766 9.38672 11.4609 9.49609 11.4766C9.60547 11.2812 9.75 11.1211 9.92969 10.9961C10.1094 10.8633 10.2891 10.7383 10.4688 10.6211C10.6562 10.5039 10.8203 10.3789 10.9609 10.2461C11.1094 10.1133 11.2031 9.94141 11.2422 9.73047C11.3906 9.49609 11.5391 9.23438 11.6875 8.94531C11.8438 8.64844 12.0234 8.40234 12.2266 8.20703C12.25 8.14453 12.2891 8.09766 12.3438 8.06641C12.3984 8.02734 12.457 8.00391 12.5195 7.99609C12.582 7.98047 12.6445 7.98438 12.707 8.00781C12.7695 8.02344 12.8242 8.05469 12.8711 8.10156C12.8867 8.24219 12.8672 8.37109 12.8125 8.48828C12.7656 8.60547 12.7109 8.72266 12.6484 8.83984C12.5938 8.94922 12.5508 9.06641 12.5195 9.19141C12.4883 9.31641 12.5 9.46094 12.5547 9.625C12.4453 9.6875 12.3359 9.74219 12.2266 9.78906C12.125 9.83594 12.0273 9.88672 11.9336 9.94141C11.8477 9.99609 11.7695 10.0664 11.6992 10.1523C11.6367 10.2383 11.5938 10.3516 11.5703 10.4922C11.7812 10.5703 11.9062 10.668 11.9453 10.7852C11.9844 10.9023 12.0039 11.0312 12.0039 11.1719C12.0039 11.3047 12.0117 11.4453 12.0273 11.5938C12.0508 11.7344 12.1523 11.875 12.332 12.0156C12.3633 12.0391 12.3828 12.0586 12.3906 12.0742C12.4062 12.082 12.4336 12.0938 12.4727 12.1094C12.5508 12.1328 12.6211 12.1328 12.6836 12.1094C12.7461 12.0781 12.8047 12.0508 12.8594 12.0273C12.9219 12.0039 12.9844 11.9961 13.0469 12.0039C13.1172 12.0039 13.1953 12.0508 13.2812 12.1445C13.3984 11.9961 13.5078 11.9961 13.6094 12.1445C13.7031 11.9727 13.7891 11.875 13.8672 11.8516C13.9453 11.8281 14.0195 11.8203 14.0898 11.8281C14.168 11.8359 14.2461 11.8281 14.3242 11.8047C14.4023 11.7812 14.4883 11.6836 14.582 11.5117L14.6875 11.6172C14.7344 11.4922 14.7891 11.4336 14.8516 11.4414C14.9219 11.4414 14.9883 11.4531 15.0508 11.4766C15.1133 11.4922 15.168 11.4922 15.2148 11.4766C15.2617 11.4531 15.2852 11.3594 15.2852 11.1953C15.3555 11.1953 15.4141 11.1797 15.4609 11.1484C15.5156 11.1172 15.5664 11.082 15.6133 11.043C15.668 11.0039 15.7266 10.9727 15.7891 10.9492C15.8516 10.918 15.9258 10.9023 16.0117 10.9023L15.707 11.6406L14.6875 12.4141ZM23.4766 9.83594C23.4062 10.2109 23.2812 10.5156 23.1016 10.75C22.9297 10.9766 22.6953 11.207 22.3984 11.4414C22.4531 11.4648 22.4844 11.4922 22.4922 11.5234C22.5078 11.5469 22.5156 11.582 22.5156 11.6289L22.4922 11.6875C22.4219 11.6328 22.3555 11.6055 22.293 11.6055C22.2305 11.5977 22.1719 11.6094 22.1172 11.6406C22.0625 11.6641 22.0078 11.6992 21.9531 11.7461C21.8984 11.7852 21.8438 11.8281 21.7891 11.875C21.6172 11.875 21.4375 11.9023 21.25 11.957C21.0625 12.0039 20.8789 12.0391 20.6992 12.0625C20.5273 12.0859 20.3672 12.0742 20.2188 12.0273C20.0703 11.9727 19.9492 11.8438 19.8555 11.6406C19.793 11.6172 19.7266 11.5977 19.6562 11.582C19.5938 11.5586 19.5312 11.5391 19.4688 11.5234C19.3359 11.7734 19.1719 12.0156 18.9766 12.25C18.7891 12.4766 18.5781 12.6914 18.3438 12.8945C18.1094 13.0898 17.8594 13.2656 17.5938 13.4219C17.3359 13.5781 17.0781 13.6992 16.8203 13.7852L16.7852 13.7969C16.7539 13.75 16.7266 13.7188 16.7031 13.7031C16.6797 13.6875 16.6523 13.6836 16.6211 13.6914C16.5977 13.6992 16.5664 13.707 16.5273 13.7148C16.4961 13.7305 16.4531 13.7383 16.3984 13.7383L16.3164 13.8789C16.207 13.8008 16.1406 13.7109 16.1172 13.6094C16.0938 13.5156 16.0352 13.4492 15.9414 13.4102L15.8359 13.5391L15.8008 13.5039C15.6602 13.3633 15.5391 13.1797 15.4375 12.9531C15.3359 12.7266 15.2539 12.4883 15.1914 12.2383C15.1289 11.9805 15.0898 11.7266 15.0742 11.4766C15.0508 11.2266 15.0508 11.0078 15.0742 10.8203C15.0117 10.7578 14.9375 10.7031 14.8516 10.6562C14.7656 10.6094 14.7148 10.5391 14.6992 10.4453L14.7109 10.4336C14.7266 10.3398 14.7734 10.2773 14.8516 10.2461C14.9219 10.2148 15 10.1953 15.0859 10.1875C15.1719 10.1797 15.2539 10.1758 15.332 10.1758C15.4102 10.1758 15.4609 10.1602 15.4844 10.1289C15.4844 10.082 15.4648 10.0352 15.4258 9.98828C15.3945 9.94141 15.3633 9.89844 15.332 9.85938C15.332 9.78125 15.3516 9.72266 15.3906 9.68359C15.4297 9.64453 15.4727 9.60938 15.5195 9.57812C15.5664 9.54688 15.6094 9.51953 15.6484 9.49609C15.6875 9.47266 15.707 9.44141 15.707 9.40234C15.707 9.37109 15.6992 9.34375 15.6836 9.32031C15.668 9.29688 15.6523 9.26562 15.6367 9.22656C15.7539 9.21094 15.8242 9.17188 15.8477 9.10938C15.8711 9.04688 15.9219 8.98047 16 8.91016C15.9531 8.84766 15.9453 8.78125 15.9766 8.71094C16.0078 8.63281 16.043 8.55859 16.082 8.48828C16.1211 8.41016 16.1484 8.33984 16.1641 8.27734C16.1875 8.20703 16.168 8.14453 16.1055 8.08984C16.0977 8.08984 16.0938 8.08984 16.0938 8.08984C16.0938 8.08203 16.0898 8.07812 16.082 8.07812C16.2461 7.59375 16.4062 7.10938 16.5625 6.625C16.7266 6.13281 16.8984 5.64844 17.0781 5.17188C17.2656 4.69531 17.4648 4.22656 17.6758 3.76562C17.8945 3.30469 18.1406 2.85547 18.4141 2.41797C18.4219 2.31641 18.4492 2.23828 18.4961 2.18359C18.5508 2.12891 18.6133 2.08984 18.6836 2.06641C18.7539 2.03516 18.832 2.00781 18.918 1.98438C19.0039 1.96094 19.082 1.92969 19.1523 1.89062C19.2227 1.84375 19.2812 1.78516 19.3281 1.71484C19.375 1.64453 19.3984 1.54297 19.3984 1.41016C19.5234 1.44141 19.6406 1.45703 19.75 1.45703C19.8594 1.45703 19.9648 1.46094 20.0664 1.46875C20.1758 1.47656 20.2773 1.5 20.3711 1.53906C20.4727 1.57812 20.5703 1.65625 20.6641 1.77344L20.6758 1.78516C20.6836 1.81641 20.6797 1.86328 20.6641 1.92578C20.6562 1.98047 20.6523 2.02734 20.6523 2.06641C20.6523 2.22266 20.6641 2.38281 20.6875 2.54688C20.7188 2.71094 20.7305 2.875 20.7227 3.03906C20.7148 3.19531 20.6797 3.34375 20.6172 3.48438C20.5547 3.61719 20.4375 3.73438 20.2656 3.83594C20.3438 4.03906 20.3438 4.22266 20.2656 4.38672C20.1953 4.54297 20.0977 4.69531 19.9727 4.84375C19.8477 4.99219 19.7266 5.14453 19.6094 5.30078C19.5 5.45703 19.4453 5.63281 19.4453 5.82812C19.3203 5.89062 19.2227 5.98047 19.1523 6.09766C19.082 6.20703 19.0117 6.32422 18.9414 6.44922C18.8789 6.57422 18.8047 6.69141 18.7188 6.80078C18.6406 6.90234 18.5234 6.97656 18.3672 7.02344C18.2969 7.30469 18.168 7.55469 17.9805 7.77344C17.793 7.99219 17.6016 8.20703 17.4062 8.41797C17.2109 8.62891 17.0352 8.84766 16.8789 9.07422C16.7305 9.30078 16.6562 9.5625 16.6562 9.85938C16.4375 10.0703 16.293 10.3125 16.2227 10.5859C16.1602 10.8594 16.1289 11.1406 16.1289 11.4297C16.1289 11.5156 16.1328 11.6016 16.1406 11.6875C16.1484 11.7734 16.1523 11.8594 16.1523 11.9453C16.0898 11.9062 16.0352 11.9219 15.9883 11.9922L15.9766 12.0156C16.0391 12.1797 16.1094 12.3398 16.1875 12.4961C16.2734 12.6445 16.3789 12.7852 16.5039 12.918C16.707 12.8555 16.9062 12.7891 17.1016 12.7188C17.3047 12.6406 17.5117 12.5742 17.7227 12.5195C17.7695 12.332 17.8555 12.2031 17.9805 12.1328C18.1133 12.0547 18.2422 11.9883 18.3672 11.9336C18.5 11.8789 18.6172 11.8125 18.7188 11.7344C18.8203 11.6562 18.8711 11.5156 18.8711 11.3125H18.8945C19.0117 11.2891 19.1016 11.2383 19.1641 11.1602C19.2266 11.0742 19.2734 10.9805 19.3047 10.8789C19.3438 10.7695 19.3672 10.6562 19.375 10.5391C19.3906 10.4219 19.4023 10.3164 19.4102 10.2227C19.3867 10.1836 19.3789 10.1289 19.3867 10.0586C19.4023 9.98047 19.4141 9.90234 19.4219 9.82422C19.4375 9.73828 19.4414 9.65234 19.4336 9.56641C19.4336 9.48047 19.4141 9.40234 19.375 9.33203V9.30859L19.3867 9.28516C19.4258 9.20703 19.4648 9.13672 19.5039 9.07422C19.543 9.00391 19.5781 8.92969 19.6094 8.85156C19.6875 8.64062 19.7773 8.47656 19.8789 8.35938C19.9805 8.24219 20.1562 8.18359 20.4062 8.18359C20.5625 8.27734 20.6523 8.37891 20.6758 8.48828C20.707 8.59766 20.707 8.71484 20.6758 8.83984C20.6445 8.96484 20.6094 9.09766 20.5703 9.23828C20.5312 9.37109 20.5234 9.50391 20.5469 9.63672L20.5703 9.67188C20.5234 9.67969 20.4805 9.70312 20.4414 9.74219C20.4023 9.78125 20.3633 9.82422 20.3242 9.87109C20.2852 9.91797 20.2461 9.96484 20.207 10.0117C20.1758 10.0586 20.1484 10.0977 20.125 10.1289C20.1797 10.2148 20.2109 10.3047 20.2188 10.3984C20.2266 10.4844 20.2344 10.5664 20.2422 10.6445C20.2578 10.7148 20.2891 10.7812 20.3359 10.8438C20.3906 10.8984 20.4844 10.9297 20.6172 10.9375C20.7578 10.9531 20.9023 10.9727 21.0508 10.9961C21.1992 11.0195 21.3438 11.0352 21.4844 11.043C21.6328 11.043 21.7734 11.0273 21.9062 10.9961C22.0469 10.9648 22.1758 10.8984 22.293 10.7969C22.293 10.6953 22.3125 10.6289 22.3516 10.5977C22.3984 10.5664 22.4492 10.5469 22.5039 10.5391C22.5664 10.5312 22.6289 10.5273 22.6914 10.5273C22.7539 10.5195 22.8047 10.4883 22.8438 10.4336C22.7969 10.418 22.7656 10.4023 22.75 10.3867C22.7422 10.3633 22.7109 10.375 22.6562 10.4219L22.6211 10.2578L22.6914 10.2109C22.7461 10.2578 22.8008 10.2734 22.8555 10.2578C22.9102 10.2344 22.9609 10.2031 23.0078 10.1641C23.0625 10.1172 23.1133 10.0703 23.1602 10.0234C23.2148 9.96875 23.2656 9.92969 23.3125 9.90625L23.3828 9.80078L23.4766 9.83594ZM19.9375 2.38281C19.9141 2.39062 19.8867 2.40234 19.8555 2.41797C19.7461 2.47266 19.6289 2.53516 19.5039 2.60547C19.3789 2.67578 19.2617 2.75781 19.1523 2.85156C19.0508 2.9375 18.9648 3.03906 18.8945 3.15625C18.8242 3.26562 18.7891 3.39062 18.7891 3.53125C18.7891 3.55469 18.7891 3.59375 18.7891 3.64844C18.7891 3.69531 18.7969 3.72656 18.8125 3.74219C18.7812 3.75781 18.75 3.79297 18.7188 3.84766C18.6953 3.89453 18.6641 3.94922 18.625 4.01172C18.5938 4.06641 18.5508 4.12109 18.4961 4.17578C18.4492 4.22266 18.3867 4.25391 18.3086 4.26953C18.3789 4.37109 18.4141 4.47656 18.4141 4.58594C18.4141 4.6875 18.3945 4.78906 18.3555 4.89062C18.3164 4.99219 18.2617 5.09375 18.1914 5.19531C18.1289 5.28906 18.0664 5.37891 18.0039 5.46484L17.957 5.42969C17.9961 5.58594 18 5.73438 17.9688 5.875C17.9453 6.00781 17.9062 6.14062 17.8516 6.27344C17.8047 6.39844 17.75 6.52344 17.6875 6.64844C17.625 6.77344 17.5742 6.90625 17.5352 7.04688C17.5977 6.97656 17.6523 6.90234 17.6992 6.82422C17.7539 6.74609 17.8086 6.66797 17.8633 6.58984C17.8789 6.60547 17.9062 6.62891 17.9453 6.66016C17.9922 6.68359 18.0234 6.69531 18.0391 6.69531C18.0156 6.65625 17.9922 6.61328 17.9688 6.56641C17.9453 6.51953 17.9219 6.47656 17.8984 6.4375V6.41406C18 6.24219 18.125 6.09375 18.2734 5.96875C18.4219 5.83594 18.5625 5.70312 18.6953 5.57031C18.6953 5.35156 18.7383 5.17578 18.8242 5.04297C18.918 4.90234 19.0195 4.77734 19.1289 4.66797C19.2461 4.55078 19.3477 4.4375 19.4336 4.32812C19.5273 4.21094 19.5742 4.06641 19.5742 3.89453C19.5742 3.85547 19.5703 3.80469 19.5625 3.74219C19.5547 3.67188 19.543 3.61719 19.5273 3.57812L19.5625 3.56641C19.7109 3.51953 19.8086 3.45312 19.8555 3.36719C19.9023 3.27344 19.9258 3.17578 19.9258 3.07422C19.9336 2.96484 19.9297 2.85156 19.9141 2.73438C19.9062 2.60938 19.9141 2.49219 19.9375 2.38281ZM31.1992 9.41406C31.1289 9.48438 31.0742 9.53906 31.0352 9.57812C31.0039 9.61719 30.9727 9.65625 30.9414 9.69531C30.918 9.72656 30.8867 9.76172 30.8477 9.80078C30.8164 9.83984 30.7656 9.89844 30.6953 9.97656C30.6328 10.0391 30.5742 10.1055 30.5195 10.1758C30.4648 10.2461 30.4023 10.3086 30.332 10.3633C30.2383 10.3398 30.1641 10.3516 30.1094 10.3984C30.0625 10.4453 30.0156 10.5 29.9688 10.5625C29.9297 10.6172 29.8906 10.6719 29.8516 10.7266C29.8203 10.7734 29.7773 10.793 29.7227 10.7852C29.5352 10.8867 29.3477 10.9766 29.1602 11.0547C28.9727 11.125 28.793 11.2305 28.6211 11.3711L28.5273 11.2773L27.3086 11.8633C27.2695 11.8789 27.2305 11.9023 27.1914 11.9336C27.1523 11.9648 27.1133 11.9922 27.0742 12.0156C26.9023 12.1094 26.7227 12.1953 26.5352 12.2734C26.3555 12.3438 26.1758 12.4102 25.9961 12.4727L25.8438 12.5195C25.9062 12.6758 25.9062 12.7852 25.8438 12.8477C25.7812 12.9102 25.6914 12.957 25.5742 12.9883C25.457 13.0117 25.3281 13.0273 25.1875 13.0352C25.0469 13.043 24.9375 13.0703 24.8594 13.1172C24.7656 13.1016 24.668 13.0938 24.5664 13.0938C24.4727 13.1016 24.375 13.1133 24.2734 13.1289C24.1641 13.1445 24.0625 13.1523 23.9688 13.1523C23.875 13.1523 23.7734 13.1406 23.6641 13.1172H23.6406C23.5078 13.1797 23.3906 13.1914 23.2891 13.1523C23.1953 13.1211 23.1094 13.0664 23.0312 12.9883C22.9531 12.9023 22.8789 12.8047 22.8086 12.6953C22.7461 12.5781 22.6797 12.4727 22.6094 12.3789C22.5625 12.3164 22.5039 12.2266 22.4336 12.1094C22.3633 11.9922 22.3047 11.8672 22.2578 11.7344C22.2031 11.6016 22.1719 11.4688 22.1641 11.3359C22.1484 11.1953 22.1758 11.0742 22.2461 10.9727C22.3164 10.8711 22.375 10.7617 22.4219 10.6445C22.4609 10.5273 22.4805 10.3906 22.4805 10.2344C22.4805 10.1797 22.4805 10.1289 22.4805 10.082C22.4727 10.0352 22.4688 9.98438 22.4688 9.92969C22.5078 9.92969 22.5508 9.93359 22.5977 9.94141C22.6445 9.94141 22.6875 9.94141 22.7266 9.94141C22.7734 9.93359 22.8086 9.91797 22.832 9.89453C22.8633 9.86328 22.8789 9.8125 22.8789 9.74219C22.8789 9.70312 22.8633 9.67188 22.832 9.64844C22.8086 9.625 22.793 9.60156 22.7852 9.57812C22.832 9.50781 22.875 9.45312 22.9141 9.41406C22.9609 9.36719 23 9.32422 23.0312 9.28516C23.0625 9.23828 23.0859 9.1875 23.1016 9.13281C23.1172 9.07031 23.1133 8.98828 23.0898 8.88672C23.1836 8.72266 23.293 8.57812 23.418 8.45312C23.5508 8.32031 23.6875 8.19922 23.8281 8.08984C23.9688 7.97266 24.1133 7.85938 24.2617 7.75C24.4102 7.64062 24.5508 7.52344 24.6836 7.39844C24.832 7.46094 24.9492 7.46094 25.0352 7.39844C25.1289 7.33594 25.2109 7.26953 25.2812 7.19922C25.3516 7.12109 25.4219 7.05859 25.4922 7.01172C25.5625 6.96484 25.6562 6.98438 25.7734 7.07031L25.7969 7.09375C26.0078 6.88281 26.2188 6.78906 26.4297 6.8125C26.6484 6.83594 26.832 6.90625 26.9805 7.02344C27.1367 7.14062 27.2383 7.27734 27.2852 7.43359C27.332 7.58203 27.2891 7.68359 27.1562 7.73828C27.2422 7.82422 27.2852 7.92578 27.2852 8.04297C27.2852 8.16016 27.2539 8.26172 27.1914 8.34766C27.1211 8.44141 27.0586 8.53906 27.0039 8.64062C26.957 8.73438 26.9062 8.83594 26.8516 8.94531C26.7734 9.125 26.6875 9.29688 26.5938 9.46094C26.5 9.61719 26.3672 9.75 26.1953 9.85938C26.0547 9.82031 25.957 9.83594 25.9023 9.90625C25.8555 9.97656 25.8203 10.0547 25.7969 10.1406C25.7734 10.2188 25.7461 10.2812 25.7148 10.3281C25.6836 10.375 25.6172 10.3594 25.5156 10.2812L25.4922 10.2578L25.4688 10.2812C25.4062 10.3438 25.3555 10.4141 25.3164 10.4922C25.2852 10.5703 25.2383 10.6289 25.1758 10.668C25.1055 10.6445 25.0312 10.625 24.9531 10.6094C24.875 10.5938 24.8008 10.5781 24.7305 10.5625C24.7305 10.7266 24.6992 10.8555 24.6367 10.9492C24.5742 11.043 24.4922 11.1211 24.3906 11.1836C24.2969 11.2383 24.1875 11.2852 24.0625 11.3242C23.9375 11.3555 23.8125 11.3984 23.6875 11.4531C23.5703 11.5 23.457 11.5625 23.3477 11.6406C23.2461 11.7109 23.1641 11.8125 23.1016 11.9453C23.1797 12.0312 23.2773 12.082 23.3945 12.0977C23.5117 12.1055 23.6328 12.1055 23.7578 12.0977C23.8828 12.082 24.0039 12.0742 24.1211 12.0742C24.2461 12.0742 24.3555 12.1055 24.4492 12.168L24.4609 12.1797L24.4727 12.168C24.6602 12.1445 24.8398 12.1016 25.0117 12.0391C25.1914 11.9688 25.3633 11.8984 25.5273 11.8281C25.6992 11.75 25.8711 11.6797 26.043 11.6172C26.2227 11.5469 26.4062 11.4961 26.5938 11.4648C26.6328 11.5273 26.6836 11.5625 26.7461 11.5703C26.8164 11.5781 26.8828 11.5742 26.9453 11.5586L26.957 11.5352C26.9727 11.4805 26.9883 11.4336 27.0039 11.3945C27.0195 11.3477 27.043 11.2969 27.0742 11.2422C27.1289 11.1562 27.1953 11.0898 27.2734 11.043C27.3516 10.9961 27.4336 10.9609 27.5195 10.9375C27.6133 10.9141 27.7109 10.8984 27.8125 10.8906C27.9141 10.8828 28.0156 10.8711 28.1172 10.8555H28.1406L28.1523 10.8203C28.1836 10.7266 28.2227 10.6641 28.2695 10.6328C28.3242 10.5938 28.3789 10.5664 28.4336 10.5508C28.4961 10.5352 28.5586 10.5234 28.6211 10.5156C28.6914 10.5078 28.7578 10.4844 28.8203 10.4453C28.9609 10.4922 29.0781 10.4766 29.1719 10.3984C29.2656 10.3203 29.3555 10.2383 29.4414 10.1523L29.5352 10.2695L29.5703 10.2227C29.6875 10.1133 29.7734 10.0312 29.8281 9.97656C29.8906 9.92188 29.9492 9.875 30.0039 9.83594C30.0586 9.78906 30.1211 9.74609 30.1914 9.70703C30.2695 9.66016 30.375 9.59375 30.5078 9.50781C30.6172 9.4375 30.7227 9.36719 30.8242 9.29688C30.9336 9.22656 31.0391 9.14844 31.1406 9.0625C31.1797 9.07812 31.1992 9.10938 31.1992 9.15625C31.1992 9.19531 31.1992 9.23438 31.1992 9.27344C31.1914 9.28906 31.1836 9.3125 31.1758 9.34375C31.1758 9.375 31.1836 9.39844 31.1992 9.41406ZM26.3477 7.94922C26.3398 7.94141 26.332 7.9375 26.3242 7.9375C26.3242 7.9375 26.3203 7.93359 26.3125 7.92578C26.1484 7.83984 26.0117 7.80078 25.9023 7.80859C25.793 7.80859 25.6914 7.83984 25.5977 7.90234C25.5117 7.95703 25.4297 8.03125 25.3516 8.125C25.2812 8.21094 25.2031 8.29297 25.1172 8.37109C25.0391 8.44141 24.9453 8.49609 24.8359 8.53516C24.7266 8.57422 24.5938 8.57031 24.4375 8.52344C24.4141 8.64844 24.3906 8.77344 24.3672 8.89844C24.3516 9.01562 24.3398 9.13672 24.332 9.26172C24.1992 9.30859 24.0938 9.375 24.0156 9.46094C23.9453 9.54688 23.8828 9.64062 23.8281 9.74219C23.7812 9.84375 23.7344 9.95312 23.6875 10.0703C23.6484 10.1797 23.5938 10.2852 23.5234 10.3867L23.5703 10.4453C23.6016 10.4297 23.6367 10.4414 23.6758 10.4805C23.7148 10.5195 23.7422 10.5469 23.7578 10.5625C23.8438 10.4375 23.957 10.332 24.0977 10.2461C24.2461 10.1602 24.3945 10.082 24.543 10.0117C24.6992 9.93359 24.8477 9.85156 24.9883 9.76562C25.1289 9.67969 25.2344 9.56641 25.3047 9.42578C25.5547 9.35547 25.7422 9.21484 25.8672 9.00391C25.9922 8.79297 26.0977 8.57422 26.1836 8.34766C26.1992 8.30078 26.2266 8.23438 26.2656 8.14844C26.3125 8.05469 26.3398 7.98828 26.3477 7.94922ZM37.6562 10.0703C37.6172 10.3125 37.5703 10.5 37.5156 10.6328C37.4609 10.7578 37.3906 10.8633 37.3047 10.9492C37.2266 11.0273 37.125 11.1055 37 11.1836C36.875 11.2539 36.7266 11.3594 36.5547 11.5C36.4922 11.5469 36.4336 11.5898 36.3789 11.6289C36.3242 11.668 36.2695 11.7148 36.2148 11.7695C36.0586 11.8164 35.8672 11.8945 35.6406 12.0039C35.4141 12.1055 35.1797 12.2109 34.9375 12.3203C34.7031 12.4219 34.4766 12.5117 34.2578 12.5898C34.0469 12.668 33.875 12.6992 33.7422 12.6836C33.6953 12.7461 33.6133 12.7852 33.4961 12.8008C33.3789 12.8164 33.2891 12.8242 33.2266 12.8242C33.125 12.8242 33.0195 12.832 32.9102 12.8477C32.8086 12.8633 32.7188 12.9102 32.6406 12.9883C32.625 13.0039 32.6133 13.0117 32.6055 13.0117C32.6055 13.0195 32.6055 13.0234 32.6055 13.0234C32.6133 13.0234 32.6133 13.0234 32.6055 13.0234C32.6055 13.0312 32.5977 13.0469 32.582 13.0703C32.4961 13.1719 32.4062 13.2266 32.3125 13.2344C32.2266 13.2422 32.1406 13.2266 32.0547 13.1875C31.9688 13.1562 31.8789 13.1133 31.7852 13.0586C31.6992 13.0039 31.6094 12.9648 31.5156 12.9414C31.4297 12.9102 31.3398 12.9062 31.2461 12.9297C31.1523 12.9453 31.0586 13.0078 30.9648 13.1172C30.9102 12.9766 30.8242 12.8945 30.707 12.8711C30.5898 12.8477 30.4688 12.8359 30.3438 12.8359C30.2266 12.8281 30.1133 12.8164 30.0039 12.8008C29.8945 12.7773 29.8203 12.7031 29.7812 12.5781V12.5664L29.5352 12.3555L29.5 12.3906C29.4609 12.4297 29.4297 12.4727 29.4062 12.5195C29.3828 12.5664 29.3555 12.6094 29.3242 12.6484C29.2617 12.7422 29.1953 12.8359 29.125 12.9297C29.0547 13.0156 28.9766 13.0898 28.8906 13.1523C28.7969 13.2227 28.6992 13.2734 28.5977 13.3047C28.4961 13.3438 28.3867 13.3555 28.2695 13.3398C28.2695 13.1523 28.3242 12.9805 28.4336 12.8242C28.5352 12.668 28.6367 12.5156 28.7383 12.3672C28.832 12.2109 28.8945 12.0547 28.9258 11.8984C28.9492 11.7344 28.8828 11.5625 28.7266 11.3828C28.7188 11.2734 28.6719 11.168 28.5859 11.0664C28.4922 10.957 28.4062 10.8516 28.3281 10.75C28.25 10.6406 28.207 10.5352 28.1992 10.4336C28.1836 10.332 28.25 10.2305 28.3984 10.1289C28.3281 10.1133 28.2812 10.0859 28.2578 10.0469C28.2578 10.0078 28.2695 9.96875 28.293 9.92969C28.3086 9.88281 28.3242 9.83984 28.3398 9.80078C28.3867 9.80078 28.4375 9.79297 28.4922 9.77734C28.5391 9.75391 28.5859 9.73828 28.6328 9.73047C28.6719 9.71484 28.7109 9.71484 28.75 9.73047C28.7812 9.73828 28.8125 9.77344 28.8438 9.83594C28.8672 9.88281 28.8867 9.93359 28.9023 9.98828C28.918 10.043 28.9375 10.0977 28.9609 10.1523C29.0234 10.3086 29.1016 10.457 29.1953 10.5977C29.2891 10.7305 29.3945 10.8555 29.5117 10.9727L29.5469 11.0078C29.5469 11 29.5625 10.9805 29.5938 10.9492C29.625 10.918 29.6602 10.8867 29.6992 10.8555C29.7383 10.8164 29.7734 10.7812 29.8047 10.75C29.8359 10.7188 29.8594 10.6953 29.875 10.6797C29.9688 10.5938 30.0586 10.5117 30.1445 10.4336C30.2305 10.3555 30.3047 10.2773 30.3672 10.1992C30.4375 10.1133 30.4883 10.0195 30.5195 9.91797C30.5586 9.80859 30.5781 9.68359 30.5781 9.54297C30.8203 9.37891 31.0586 9.19922 31.293 9.00391C31.5273 8.80078 31.7656 8.60547 32.0078 8.41797C32.25 8.23047 32.5 8.0625 32.7578 7.91406C33.0234 7.76562 33.3086 7.66406 33.6133 7.60938C33.6836 7.73438 33.7656 7.83203 33.8594 7.90234C33.9531 7.97266 34.043 8.04297 34.1289 8.11328C34.2227 8.18359 34.3047 8.26953 34.375 8.37109C34.4531 8.47266 34.5078 8.61328 34.5391 8.79297C34.6016 9.12891 34.6016 9.44531 34.5391 9.74219C34.4844 10.0391 34.4023 10.3477 34.293 10.668C34.2305 10.8555 34.1719 11.0469 34.1172 11.2422C34.0703 11.4375 34.0469 11.6367 34.0469 11.8398L34.1289 11.8633C34.1992 11.7695 34.2773 11.7109 34.3633 11.6875C34.457 11.6641 34.5508 11.6484 34.6445 11.6406C34.7383 11.6328 34.8281 11.6211 34.9141 11.6055C35.0078 11.582 35.0859 11.5234 35.1484 11.4297C35.25 11.4688 35.3438 11.4727 35.4297 11.4414C35.5234 11.4023 35.6133 11.3516 35.6992 11.2891C35.7852 11.2266 35.8711 11.1602 35.957 11.0898C36.043 11.0195 36.1328 10.9727 36.2266 10.9492L36.2148 10.8555C36.3555 10.7617 36.4766 10.6953 36.5781 10.6562C36.6797 10.6172 36.7734 10.5781 36.8594 10.5391C36.9453 10.5 37.0312 10.4453 37.1172 10.375C37.2031 10.3047 37.3008 10.1875 37.4102 10.0234C37.4492 10.0078 37.4922 10.0039 37.5391 10.0117C37.5938 10.0117 37.6328 10.0312 37.6562 10.0703ZM33.5664 8.91016C33.5273 8.89453 33.4844 8.88281 33.4375 8.875C33.3984 8.85938 33.3594 8.83984 33.3203 8.81641C33.25 8.76953 33.1836 8.73438 33.1211 8.71094C33.0586 8.6875 32.9844 8.69531 32.8984 8.73438V8.75781H32.8867C32.4883 9.0625 32.1172 9.39844 31.7734 9.76562C31.4375 10.125 31.082 10.4766 30.707 10.8203L30.6016 10.7148C30.5469 10.7852 30.5156 10.8594 30.5078 10.9375C30.5078 11.0156 30.5078 11.0898 30.5078 11.1602C30.5078 11.2305 30.5 11.2969 30.4844 11.3594C30.4688 11.4219 30.4219 11.4805 30.3438 11.5352L30.3086 11.5586C30.3398 11.668 30.3828 11.7383 30.4375 11.7695C30.5 11.793 30.5625 11.8047 30.625 11.8047C30.6953 11.7969 30.7617 11.7891 30.8242 11.7812C30.8867 11.7734 30.9375 11.7852 30.9766 11.8164C31 11.832 31.0156 11.8555 31.0234 11.8867C31.0312 11.918 31.0352 11.9453 31.0352 11.9688C31.0742 11.9688 31.1133 11.9688 31.1523 11.9688C31.1992 11.9688 31.2461 11.9648 31.293 11.957C31.3789 11.9414 31.4688 11.9414 31.5625 11.957C31.6641 11.9648 31.7227 12.0234 31.7383 12.1328C31.8945 12.0703 32.0547 12.0039 32.2188 11.9336C32.3828 11.8633 32.5156 11.75 32.6172 11.5938L32.6992 11.6758C32.707 11.6758 32.7109 11.6758 32.7109 11.6758C32.7188 11.668 32.7266 11.6641 32.7344 11.6641C32.9297 11.5469 33.082 11.375 33.1914 11.1484C33.3086 10.9219 33.3945 10.6758 33.4492 10.4102C33.5039 10.1445 33.5352 9.87891 33.543 9.61328C33.5586 9.34766 33.5664 9.11328 33.5664 8.91016Z" fill="black"/>
</svg>
